<?xml version="1.0" encoding="us-ascii" standalone="no"?><svg xmlns="http://www.w3.org/2000/svg" xmlns:xlink="http://www.w3.org/1999/xlink" contentStyleType="text/css" height="1859px" preserveAspectRatio="none" style="width:1409px;height:1859px;background:#FFFFFF;" version="1.1" viewBox="0 0 1409 1859" width="1409px" zoomAndPan="magnify"><defs/><g><rect fill="none" height="1319.0647" style="stroke:#000000;stroke-width:1.5;" width="792" x="20" y="101.0679"/><rect fill="none" height="83.118" style="stroke:#000000;stroke-width:1.5;" width="368.5" x="30" y="254.598"/><rect fill="none" height="51.412" style="stroke:#000000;stroke-width:1.5;" width="368.5" x="30" y="351.716"/><rect fill="none" height="996.0046" style="stroke:#000000;stroke-width:1.5;" width="772" x="30" y="417.1281"/><rect fill="none" height="83.118" style="stroke:#000000;stroke-width:1.5;" width="460.5" x="321.5" y="443.8341"/><rect fill="none" height="83.118" style="stroke:#000000;stroke-width:1.5;" width="460.5" x="321.5" y="540.9521"/><rect fill="none" height="311.0602" style="stroke:#000000;stroke-width:1.5;" width="480.5" x="311.5" y="638.0702"/><rect fill="none" height="83.118" style="stroke:#000000;stroke-width:1.5;" width="460.5" x="321.5" y="664.7762"/><rect fill="none" height="83.118" style="stroke:#000000;stroke-width:1.5;" width="460.5" x="321.5" y="761.8943"/><rect fill="none" height="83.118" style="stroke:#000000;stroke-width:1.5;" width="460.5" x="321.5" y="859.0123"/><rect fill="none" height="242.6481" style="stroke:#000000;stroke-width:1.5;" width="480.5" x="311.5" y="963.1304"/><rect fill="none" height="145.5301" style="stroke:#000000;stroke-width:1.5;" width="460.5" x="321.5" y="1053.2484"/><rect fill="none" height="325.0421" style="stroke:#000000;stroke-width:1.5;" width="1151.5" x="10" y="1434.1326"/><rect fill="none" height="196.218" style="stroke:#000000;stroke-width:1.5;" width="477" x="20" y="1555.9567"/><rect fill="none" height="162.512" style="stroke:#000000;stroke-width:1.5;" width="457" x="30" y="1582.6627"/><line style="stroke:#181818;stroke-width:0.5;stroke-dasharray:5.0,5.0;" x1="64" x2="64" y1="84.0679" y2="1776.1747"/><line style="stroke:#181818;stroke-width:0.5;stroke-dasharray:5.0,5.0;" x1="359.5" x2="359.5" y1="84.0679" y2="1776.1747"/><line style="stroke:#181818;stroke-width:0.5;stroke-dasharray:5.0,5.0;" x1="754" x2="754" y1="84.0679" y2="1776.1747"/><line style="stroke:#181818;stroke-width:0.5;stroke-dasharray:5.0,5.0;" x1="956" x2="956" y1="84.0679" y2="1776.1747"/><line style="stroke:#181818;stroke-width:0.5;stroke-dasharray:5.0,5.0;" x1="1095.5" x2="1095.5" y1="84.0679" y2="1776.1747"/><line style="stroke:#181818;stroke-width:0.5;stroke-dasharray:5.0,5.0;" x1="1210.5" x2="1210.5" y1="84.0679" y2="1776.1747"/><line style="stroke:#181818;stroke-width:0.5;stroke-dasharray:5.0,5.0;" x1="1336.5" x2="1336.5" y1="84.0679" y2="1776.1747"/><text fill="#000000" font-family="sans-serif" font-size="14" lengthAdjust="spacing" textLength="42" x="40" y="79.9659">Wallet</text><ellipse cx="64" cy="13.5" fill="#E2E2F0" rx="8" ry="8" style="stroke:#181818;stroke-width:0.5;"/><path d="M64,21.5 L64,48.5 M51,29.5 L77,29.5 M64,48.5 L51,63.5 M64,48.5 L77,63.5 " fill="none" style="stroke:#181818;stroke-width:0.5;"/><text fill="#000000" font-family="sans-serif" font-size="14" lengthAdjust="spacing" textLength="42" x="40" y="1790.1406">Wallet</text><ellipse cx="64" cy="1802.7426" fill="#E2E2F0" rx="8" ry="8" style="stroke:#181818;stroke-width:0.5;"/><path d="M64,1810.7426 L64,1837.7426 M51,1818.7426 L77,1818.7426 M64,1837.7426 L51,1852.7426 M64,1837.7426 L77,1852.7426 " fill="none" style="stroke:#181818;stroke-width:0.5;"/><rect fill="#E2E2F0" height="33.0679" rx="2.5" ry="2.5" style="stroke:#181818;stroke-width:0.5;" width="57" x="331.5" y="50"/><text fill="#000000" font-family="sans-serif" font-size="14" lengthAdjust="spacing" textLength="43" x="338.5" y="71.9659">Server</text><rect fill="#E2E2F0" height="33.0679" rx="2.5" ry="2.5" style="stroke:#181818;stroke-width:0.5;" width="57" x="331.5" y="1775.1747"/><text fill="#000000" font-family="sans-serif" font-size="14" lengthAdjust="spacing" textLength="43" x="338.5" y="1797.1406">Server</text><text fill="#000000" font-family="sans-serif" font-size="14" lengthAdjust="spacing" textLength="19" x="741.5" y="79.9659">DB</text><path d="M736,29 C736,19 754,19 754,19 C754,19 772,19 772,29 L772,55 C772,65 754,65 754,65 C754,65 736,65 736,55 L736,29 " fill="#E2E2F0" style="stroke:#181818;stroke-width:1.5;"/><path d="M736,29 C736,39 754,39 754,39 C754,39 772,39 772,29 " fill="none" style="stroke:#181818;stroke-width:1.5;"/><text fill="#000000" font-family="sans-serif" font-size="14" lengthAdjust="spacing" textLength="19" x="741.5" y="1790.1406">DB</text><path d="M736,1804.2426 C736,1794.2426 754,1794.2426 754,1794.2426 C754,1794.2426 772,1794.2426 772,1804.2426 L772,1830.2426 C772,1840.2426 754,1840.2426 754,1840.2426 C754,1840.2426 736,1840.2426 736,1830.2426 L736,1804.2426 " fill="#E2E2F0" style="stroke:#181818;stroke-width:1.5;"/><path d="M736,1804.2426 C736,1814.2426 754,1814.2426 754,1814.2426 C754,1814.2426 772,1814.2426 772,1804.2426 " fill="none" style="stroke:#181818;stroke-width:1.5;"/><rect fill="#E2E2F0" height="33.0679" rx="2.5" ry="2.5" style="stroke:#181818;stroke-width:0.5;" width="74" x="919" y="50"/><text fill="#000000" font-family="sans-serif" font-size="14" lengthAdjust="spacing" textLength="60" x="926" y="71.9659">Projector</text><rect fill="#E2E2F0" height="33.0679" rx="2.5" ry="2.5" style="stroke:#181818;stroke-width:0.5;" width="74" x="919" y="1775.1747"/><text fill="#000000" font-family="sans-serif" font-size="14" lengthAdjust="spacing" textLength="60" x="926" y="1797.1406">Projector</text><rect fill="#E2E2F0" height="33.0679" rx="2.5" ry="2.5" style="stroke:#181818;stroke-width:0.5;" width="111" x="1040.5" y="50"/><text fill="#000000" font-family="sans-serif" font-size="14" lengthAdjust="spacing" textLength="97" x="1047.5" y="71.9659">Cardano Node</text><rect fill="#E2E2F0" height="33.0679" rx="2.5" ry="2.5" style="stroke:#181818;stroke-width:0.5;" width="111" x="1040.5" y="1775.1747"/><text fill="#000000" font-family="sans-serif" font-size="14" lengthAdjust="spacing" textLength="97" x="1047.5" y="1797.1406">Cardano Node</text><path d="M1166.5,55 L1255.5,55 C1260.5,55 1260.5,69.534 1260.5,69.534 C1260.5,69.534 1260.5,84.0679 1255.5,84.0679 L1166.5,84.0679 C1161.5,84.0679 1161.5,69.534 1161.5,69.534 C1161.5,69.534 1161.5,55 1166.5,55 " fill="#E2E2F0" style="stroke:#181818;stroke-width:0.5;"/><path d="M1255.5,55 C1250.5,55 1250.5,69.534 1250.5,69.534 C1250.5,84.0679 1255.5,84.0679 1255.5,84.0679 " fill="none" style="stroke:#181818;stroke-width:0.5;"/><text fill="#000000" font-family="sans-serif" font-size="14" lengthAdjust="spacing" textLength="79" x="1166.5" y="74.9659">Task Queue</text><path d="M1166.5,1775.1747 L1255.5,1775.1747 C1260.5,1775.1747 1260.5,1789.7087 1260.5,1789.7087 C1260.5,1789.7087 1260.5,1804.2426 1255.5,1804.2426 L1166.5,1804.2426 C1161.5,1804.2426 1161.5,1789.7087 1161.5,1789.7087 C1161.5,1789.7087 1161.5,1775.1747 1166.5,1775.1747 " fill="#E2E2F0" style="stroke:#181818;stroke-width:0.5;"/><path d="M1255.5,1775.1747 C1250.5,1775.1747 1250.5,1789.7087 1250.5,1789.7087 C1250.5,1804.2426 1255.5,1804.2426 1255.5,1804.2426 " fill="none" style="stroke:#181818;stroke-width:0.5;"/><text fill="#000000" font-family="sans-serif" font-size="14" lengthAdjust="spacing" textLength="79" x="1166.5" y="1795.1406">Task Queue</text><rect fill="#E2E2F0" height="33.0679" rx="2.5" ry="2.5" style="stroke:#181818;stroke-width:0.5;" width="133" x="1270.5" y="50"/><text fill="#000000" font-family="sans-serif" font-size="14" lengthAdjust="spacing" textLength="119" x="1277.5" y="71.9659">Projection Worker</text><rect fill="#E2E2F0" height="33.0679" rx="2.5" ry="2.5" style="stroke:#181818;stroke-width:0.5;" width="133" x="1270.5" y="1775.1747"/><text fill="#000000" font-family="sans-serif" font-size="14" lengthAdjust="spacing" textLength="119" x="1277.5" y="1797.1406">Projection Worker</text><path d="M20,101.0679 L172,101.0679 L172,110.7739 L162,120.7739 L20,120.7739 L20,101.0679 " fill="#EEEEEE" style="stroke:#000000;stroke-width:1.5;"/><rect fill="none" height="1319.0647" style="stroke:#000000;stroke-width:1.5;" width="792" x="20" y="101.0679"/><text fill="#000000" font-family="sans-serif" font-size="13" font-weight="bold" lengthAdjust="spacing" textLength="107" x="35" y="115.9649">Wallet Connects</text><polygon fill="#181818" points="75,140.4799,65,144.4799,75,148.4799,71,144.4799" style="stroke:#181818;stroke-width:1.0;"/><line style="stroke:#181818;stroke-width:1.0;" x1="69" x2="359" y1="144.4799" y2="144.4799"/><text fill="#000000" font-family="sans-serif" font-size="13" lengthAdjust="spacing" textLength="200" x="81" y="138.6709">&lt;event&gt; welcome {service details}</text><polygon fill="#181818" points="348,172.186,358,176.186,348,180.186,352,176.186" style="stroke:#181818;stroke-width:1.0;"/><line style="stroke:#181818;stroke-width:1.0;" x1="64" x2="354" y1="176.186" y2="176.186"/><text fill="#000000" font-family="sans-serif" font-size="13" lengthAdjust="spacing" textLength="272" x="71" y="170.377">subscribe(credentials, points: PointOrOrigin[])</text><polygon fill="#181818" points="742,203.892,752,207.892,742,211.892,746,207.892" style="stroke:#181818;stroke-width:1.0;"/><line style="stroke:#181818;stroke-width:1.0;" x1="360" x2="748" y1="207.892" y2="207.892"/><text fill="#000000" font-family="sans-serif" font-size="13" lengthAdjust="spacing" textLength="141" x="367" y="202.083">findIntersection(points)</text><polygon fill="#181818" points="371,235.598,361,239.598,371,243.598,367,239.598" style="stroke:#181818;stroke-width:1.0;"/><line style="stroke:#181818;stroke-width:1.0;" x1="365" x2="753" y1="239.598" y2="239.598"/><text fill="#000000" font-family="sans-serif" font-size="13" lengthAdjust="spacing" textLength="231" x="377" y="233.789">response: intersection point or genesis</text><path d="M30,254.598 L93,254.598 L93,264.304 L83,274.304 L30,274.304 L30,254.598 " fill="#EEEEEE" style="stroke:#000000;stroke-width:1.5;"/><rect fill="none" height="83.118" style="stroke:#000000;stroke-width:1.5;" width="368.5" x="30" y="254.598"/><text fill="#000000" font-family="sans-serif" font-size="13" font-weight="bold" lengthAdjust="spacing" textLength="18" x="45" y="269.495">alt</text><text fill="#000000" font-family="sans-serif" font-size="11" font-weight="bold" lengthAdjust="spacing" textLength="137" x="108" y="268.3569">[if no intersection found]</text><polygon fill="#181818" points="75,294.01,65,298.01,75,302.01,71,298.01" style="stroke:#181818;stroke-width:1.0;"/><line style="stroke:#181818;stroke-width:1.0;" x1="69" x2="359" y1="298.01" y2="298.01"/><text fill="#000000" font-family="sans-serif" font-size="13" lengthAdjust="spacing" textLength="174" x="81" y="292.201">&lt;event&gt; { invalid point error }</text><polygon fill="#181818" points="348,325.716,358,329.716,348,333.716,352,329.716" style="stroke:#181818;stroke-width:1.0;"/><line style="stroke:#181818;stroke-width:1.0;stroke-dasharray:2.0,2.0;" x1="64" x2="354" y1="329.716" y2="329.716"/><text fill="#000000" font-family="sans-serif" font-size="13" lengthAdjust="spacing" textLength="201" x="71" y="323.907">subscribe(points: PointOrOrigin[])</text><path d="M30,351.716 L93,351.716 L93,361.4221 L83,371.4221 L30,371.4221 L30,351.716 " fill="#EEEEEE" style="stroke:#000000;stroke-width:1.5;"/><rect fill="none" height="51.412" style="stroke:#000000;stroke-width:1.5;" width="368.5" x="30" y="351.716"/><text fill="#000000" font-family="sans-serif" font-size="13" font-weight="bold" lengthAdjust="spacing" textLength="18" x="45" y="366.6131">alt</text><text fill="#000000" font-family="sans-serif" font-size="11" font-weight="bold" lengthAdjust="spacing" textLength="102" x="108" y="365.475">[if point is genesis]</text><polygon fill="#181818" points="75,391.1281,65,395.1281,75,399.1281,71,395.1281" style="stroke:#181818;stroke-width:1.0;"/><line style="stroke:#181818;stroke-width:1.0;" x1="69" x2="359" y1="395.1281" y2="395.1281"/><text fill="#000000" font-family="sans-serif" font-size="13" lengthAdjust="spacing" textLength="231" x="81" y="389.3191">&lt;event&gt; {network genesis parameters}</text><path d="M30,417.1281 L322,417.1281 L322,426.8341 L312,436.8341 L30,436.8341 L30,417.1281 " fill="#EEEEEE" style="stroke:#000000;stroke-width:1.5;"/><rect fill="none" height="996.0046" style="stroke:#000000;stroke-width:1.5;" width="772" x="30" y="417.1281"/><text fill="#000000" font-family="sans-serif" font-size="13" font-weight="bold" lengthAdjust="spacing" textLength="247" x="45" y="432.0251">Replay Phase: Get intersection events</text><path d="M321.5,443.8341 L501.5,443.8341 L501.5,453.5401 L491.5,463.5401 L321.5,463.5401 L321.5,443.8341 " fill="#EEEEEE" style="stroke:#000000;stroke-width:1.5;"/><rect fill="none" height="83.118" style="stroke:#000000;stroke-width:1.5;" width="460.5" x="321.5" y="443.8341"/><text fill="#000000" font-family="sans-serif" font-size="13" font-weight="bold" lengthAdjust="spacing" textLength="135" x="336.5" y="458.7311">protocol parameters</text><polygon fill="#181818" points="742,483.2461,752,487.2461,742,491.2461,746,487.2461" style="stroke:#181818;stroke-width:1.0;"/><line style="stroke:#181818;stroke-width:1.0;" x1="360" x2="748" y1="487.2461" y2="487.2461"/><text fill="#000000" font-family="sans-serif" font-size="13" lengthAdjust="spacing" textLength="191" x="367" y="481.4371">protocolParametersSince(point)</text><polygon fill="#181818" points="371,514.9521,361,518.9521,371,522.9521,367,518.9521" style="stroke:#181818;stroke-width:1.0;"/><line style="stroke:#181818;stroke-width:1.0;stroke-dasharray:2.0,2.0;" x1="365" x2="753" y1="518.9521" y2="518.9521"/><text fill="#000000" font-family="sans-serif" font-size="13" lengthAdjust="spacing" textLength="319" x="377" y="513.1431">response: protocolParameters: [protocol-parameters]</text><path d="M321.5,540.9521 L464.5,540.9521 L464.5,550.6582 L454.5,560.6582 L321.5,560.6582 L321.5,540.9521 " fill="#EEEEEE" style="stroke:#000000;stroke-width:1.5;"/><rect fill="none" height="83.118" style="stroke:#000000;stroke-width:1.5;" width="460.5" x="321.5" y="540.9521"/><text fill="#000000" font-family="sans-serif" font-size="13" font-weight="bold" lengthAdjust="spacing" textLength="98" x="336.5" y="555.8492">era summaries</text><polygon fill="#181818" points="742,580.3642,752,584.3642,742,588.3642,746,584.3642" style="stroke:#181818;stroke-width:1.0;"/><line style="stroke:#181818;stroke-width:1.0;" x1="360" x2="748" y1="584.3642" y2="584.3642"/><text fill="#000000" font-family="sans-serif" font-size="13" lengthAdjust="spacing" textLength="157" x="367" y="578.5552">eraSummariesSince(point)</text><polygon fill="#181818" points="371,612.0702,361,616.0702,371,620.0702,367,616.0702" style="stroke:#181818;stroke-width:1.0;"/><line style="stroke:#181818;stroke-width:1.0;" x1="365" x2="753" y1="616.0702" y2="616.0702"/><text fill="#000000" font-family="sans-serif" font-size="13" lengthAdjust="spacing" textLength="250" x="377" y="610.2612">response: eraSummaries: [era-summaries]</text><path d="M311.5,638.0702 L472.5,638.0702 L472.5,647.7762 L462.5,657.7762 L311.5,657.7762 L311.5,638.0702 " fill="#EEEEEE" style="stroke:#000000;stroke-width:1.5;"/><rect fill="none" height="311.0602" style="stroke:#000000;stroke-width:1.5;" width="480.5" x="311.5" y="638.0702"/><text fill="#000000" font-family="sans-serif" font-size="13" font-weight="bold" lengthAdjust="spacing" textLength="116" x="326.5" y="652.9672">epoch summaries</text><path d="M321.5,664.7762 L478.5,664.7762 L478.5,674.4822 L468.5,684.4822 L321.5,684.4822 L321.5,664.7762 " fill="#EEEEEE" style="stroke:#000000;stroke-width:1.5;"/><rect fill="none" height="83.118" style="stroke:#000000;stroke-width:1.5;" width="460.5" x="321.5" y="664.7762"/><text fill="#000000" font-family="sans-serif" font-size="13" font-weight="bold" lengthAdjust="spacing" textLength="112" x="336.5" y="679.6732">stake summaries</text><polygon fill="#181818" points="742,704.1882,752,708.1882,742,712.1882,746,708.1882" style="stroke:#181818;stroke-width:1.0;"/><line style="stroke:#181818;stroke-width:1.0;" x1="360" x2="748" y1="708.1882" y2="708.1882"/><text fill="#000000" font-family="sans-serif" font-size="13" lengthAdjust="spacing" textLength="170" x="367" y="702.3792">stakeSummariesSince(point)</text><polygon fill="#181818" points="371,735.8943,361,739.8943,371,743.8943,367,739.8943" style="stroke:#181818;stroke-width:1.0;"/><line style="stroke:#181818;stroke-width:1.0;" x1="365" x2="753" y1="739.8943" y2="739.8943"/><text fill="#000000" font-family="sans-serif" font-size="13" lengthAdjust="spacing" textLength="267" x="377" y="734.0853">response: stakeSummaries: [stake-summary]</text><path d="M321.5,761.8943 L484.5,761.8943 L484.5,771.6003 L474.5,781.6003 L321.5,781.6003 L321.5,761.8943 " fill="#EEEEEE" style="stroke:#000000;stroke-width:1.5;"/><rect fill="none" height="83.118" style="stroke:#000000;stroke-width:1.5;" width="460.5" x="321.5" y="761.8943"/><text fill="#000000" font-family="sans-serif" font-size="13" font-weight="bold" lengthAdjust="spacing" textLength="118" x="336.5" y="776.7913">supply summaries</text><polygon fill="#181818" points="742,801.3063,752,805.3063,742,809.3063,746,805.3063" style="stroke:#181818;stroke-width:1.0;"/><line style="stroke:#181818;stroke-width:1.0;" x1="360" x2="748" y1="805.3063" y2="805.3063"/><text fill="#000000" font-family="sans-serif" font-size="13" lengthAdjust="spacing" textLength="178" x="367" y="799.4973">supplySummariesSince(point)</text><polygon fill="#181818" points="371,833.0123,361,837.0123,371,841.0123,367,837.0123" style="stroke:#181818;stroke-width:1.0;"/><line style="stroke:#181818;stroke-width:1.0;" x1="365" x2="753" y1="837.0123" y2="837.0123"/><text fill="#000000" font-family="sans-serif" font-size="13" lengthAdjust="spacing" textLength="283" x="377" y="831.2033">response: suppleSummaries: [supply-summary]</text><path d="M321.5,859.0123 L419.5,859.0123 L419.5,868.7183 L409.5,878.7183 L321.5,878.7183 L321.5,859.0123 " fill="#EEEEEE" style="stroke:#000000;stroke-width:1.5;"/><rect fill="none" height="83.118" style="stroke:#000000;stroke-width:1.5;" width="460.5" x="321.5" y="859.0123"/><text fill="#000000" font-family="sans-serif" font-size="13" font-weight="bold" lengthAdjust="spacing" textLength="53" x="336.5" y="873.9093">rewards</text><polygon fill="#181818" points="742,898.4243,752,902.4243,742,906.4243,746,902.4243" style="stroke:#181818;stroke-width:1.0;"/><line style="stroke:#181818;stroke-width:1.0;" x1="360" x2="748" y1="902.4243" y2="902.4243"/><text fill="#000000" font-family="sans-serif" font-size="13" lengthAdjust="spacing" textLength="190" x="367" y="896.6153">rewardsSince(point, credentials)</text><polygon fill="#181818" points="371,930.1304,361,934.1304,371,938.1304,367,934.1304" style="stroke:#181818;stroke-width:1.0;"/><line style="stroke:#181818;stroke-width:1.0;stroke-dasharray:2.0,2.0;" x1="365" x2="753" y1="934.1304" y2="934.1304"/><text fill="#000000" font-family="sans-serif" font-size="13" lengthAdjust="spacing" textLength="234" x="377" y="928.3214">response: rewardsSincePoint: [rewards]</text><path d="M311.5,963.1304 L439.5,963.1304 L439.5,972.8364 L429.5,982.8364 L311.5,982.8364 L311.5,963.1304 " fill="#EEEEEE" style="stroke:#000000;stroke-width:1.5;"/><rect fill="none" height="242.6481" style="stroke:#000000;stroke-width:1.5;" width="480.5" x="311.5" y="963.1304"/><text fill="#000000" font-family="sans-serif" font-size="13" font-weight="bold" lengthAdjust="spacing" textLength="83" x="326.5" y="978.0274">transactions</text><polygon fill="#181818" points="742,1002.5424,752,1006.5424,742,1010.5424,746,1006.5424" style="stroke:#181818;stroke-width:1.0;"/><line style="stroke:#181818;stroke-width:1.0;" x1="360" x2="748" y1="1006.5424" y2="1006.5424"/><text fill="#000000" font-family="sans-serif" font-size="13" lengthAdjust="spacing" textLength="216" x="367" y="1000.7334">transactionsSince(point, credentials)</text><polygon fill="#181818" points="371,1034.2484,361,1038.2484,371,1042.2484,367,1038.2484" style="stroke:#181818;stroke-width:1.0;"/><line style="stroke:#181818;stroke-width:1.0;stroke-dasharray:2.0,2.0;" x1="365" x2="753" y1="1038.2484" y2="1038.2484"/><text fill="#000000" font-family="sans-serif" font-size="13" lengthAdjust="spacing" textLength="370" x="377" y="1032.4394">response: transactionsSincePoint: [transaction + block header]</text><path d="M321.5,1053.2484 L384.5,1053.2484 L384.5,1062.9544 L374.5,1072.9544 L321.5,1072.9544 L321.5,1053.2484 " fill="#EEEEEE" style="stroke:#000000;stroke-width:1.5;"/><rect fill="none" height="145.5301" style="stroke:#000000;stroke-width:1.5;" width="460.5" x="321.5" y="1053.2484"/><text fill="#000000" font-family="sans-serif" font-size="13" font-weight="bold" lengthAdjust="spacing" textLength="18" x="336.5" y="1068.1454">alt</text><text fill="#000000" font-family="sans-serif" font-size="11" font-weight="bold" lengthAdjust="spacing" textLength="207" x="399.5" y="1067.0073">[if transaction contains native assets]</text><polygon fill="#181818" points="742,1092.6604,752,1096.6604,742,1100.6604,746,1096.6604" style="stroke:#181818;stroke-width:1.0;"/><line style="stroke:#181818;stroke-width:1.0;" x1="360" x2="748" y1="1096.6604" y2="1096.6604"/><text fill="#000000" font-family="sans-serif" font-size="13" lengthAdjust="spacing" textLength="114" x="367" y="1090.8514">assetInfo(assetId[])</text><polygon fill="#181818" points="371,1124.3665,361,1128.3665,371,1132.3665,367,1128.3665" style="stroke:#181818;stroke-width:1.0;"/><line style="stroke:#181818;stroke-width:1.0;" x1="365" x2="753" y1="1128.3665" y2="1128.3665"/><text fill="#000000" font-family="sans-serif" font-size="13" lengthAdjust="spacing" textLength="225" x="377" y="1122.5575">response: assetInfo: [asset meta data]</text><line style="stroke:#181818;stroke-width:1.0;" x1="360" x2="402" y1="1177.7785" y2="1177.7785"/><line style="stroke:#181818;stroke-width:1.0;" x1="402" x2="402" y1="1177.7785" y2="1190.7785"/><line style="stroke:#181818;stroke-width:1.0;" x1="361" x2="402" y1="1190.7785" y2="1190.7785"/><polygon fill="#181818" points="371,1186.7785,361,1190.7785,371,1194.7785,367,1190.7785" style="stroke:#181818;stroke-width:1.0;"/><text fill="#000000" font-family="sans-serif" font-size="13" lengthAdjust="spacing" textLength="170" x="367" y="1154.2635">Enrich transaction messages</text><text fill="#000000" font-family="sans-serif" font-size="13" lengthAdjust="spacing" textLength="167" x="367" y="1171.9695">with native asset meta data.</text><line style="stroke:#181818;stroke-width:1.0;" x1="360" x2="402" y1="1236.4845" y2="1236.4845"/><line style="stroke:#181818;stroke-width:1.0;" x1="402" x2="402" y1="1236.4845" y2="1249.4845"/><line style="stroke:#181818;stroke-width:1.0;" x1="361" x2="402" y1="1249.4845" y2="1249.4845"/><polygon fill="#181818" points="371,1245.4845,361,1249.4845,371,1253.4845,367,1249.4845" style="stroke:#181818;stroke-width:1.0;"/><text fill="#000000" font-family="sans-serif" font-size="13" lengthAdjust="spacing" textLength="189" x="367" y="1230.6755">Merge, sort responses by point.</text><polygon fill="#181818" points="75,1401.1326,65,1405.1326,75,1409.1326,71,1405.1326" style="stroke:#181818;stroke-width:1.0;"/><line style="stroke:#181818;stroke-width:1.0;" x1="69" x2="359" y1="1405.1326" y2="1405.1326"/><text fill="#000000" font-family="sans-serif" font-size="13" lengthAdjust="spacing" textLength="48" x="81" y="1275.3815">&lt;event&gt;</text><text fill="#000000" font-family="sans-serif" font-size="13" lengthAdjust="spacing" textLength="5" x="81" y="1293.0875">{</text><text fill="#000000" font-family="sans-serif" font-size="13" lengthAdjust="spacing" textLength="175" x="105" y="1310.7936">[transactions + block header],</text><text fill="#000000" font-family="sans-serif" font-size="13" lengthAdjust="spacing" textLength="59" x="105" y="1328.4996">[rewards],</text><text fill="#000000" font-family="sans-serif" font-size="13" lengthAdjust="spacing" textLength="108" x="105" y="1346.2056">[epoch summary],</text><text fill="#000000" font-family="sans-serif" font-size="13" lengthAdjust="spacing" textLength="90" x="105" y="1363.9116">[era summary],</text><text fill="#000000" font-family="sans-serif" font-size="13" lengthAdjust="spacing" textLength="131" x="105" y="1381.6176">[protocol parameters]</text><text fill="#000000" font-family="sans-serif" font-size="13" lengthAdjust="spacing" textLength="5" x="81" y="1399.3236">}</text><path d="M10,1434.1326 L120,1434.1326 L120,1443.8387 L110,1453.8387 L10,1453.8387 L10,1434.1326 " fill="#EEEEEE" style="stroke:#000000;stroke-width:1.5;"/><rect fill="none" height="325.0421" style="stroke:#000000;stroke-width:1.5;" width="1151.5" x="10" y="1434.1326"/><text fill="#000000" font-family="sans-serif" font-size="13" font-weight="bold" lengthAdjust="spacing" textLength="65" x="25" y="1449.0297">Follow Tip</text><polygon fill="#181818" points="967,1473.5447,957,1477.5447,967,1481.5447,963,1477.5447" style="stroke:#181818;stroke-width:1.0;"/><line style="stroke:#181818;stroke-width:1.0;" x1="961" x2="1095" y1="1477.5447" y2="1477.5447"/><text fill="#000000" font-family="sans-serif" font-size="13" lengthAdjust="spacing" textLength="116" x="973" y="1471.7357">&lt;event&gt; Chain Sync</text><polygon fill="#181818" points="765,1505.2507,755,1509.2507,765,1513.2507,761,1509.2507" style="stroke:#181818;stroke-width:1.0;"/><line style="stroke:#181818;stroke-width:1.0;" x1="759" x2="955" y1="1509.2507" y2="1509.2507"/><text fill="#000000" font-family="sans-serif" font-size="13" lengthAdjust="spacing" textLength="178" x="771" y="1503.4417">write &amp; notify(extendedBlock)</text><polygon fill="#181818" points="371,1536.9567,361,1540.9567,371,1544.9567,367,1540.9567" style="stroke:#181818;stroke-width:1.0;"/><line style="stroke:#181818;stroke-width:1.0;" x1="365" x2="753" y1="1540.9567" y2="1540.9567"/><text fill="#000000" font-family="sans-serif" font-size="13" lengthAdjust="spacing" textLength="183" x="377" y="1535.1477">&lt;event&gt; notify(extendedBlock)</text><path d="M20,1555.9567 L93,1555.9567 L93,1565.6627 L83,1575.6627 L20,1575.6627 L20,1555.9567 " fill="#EEEEEE" style="stroke:#000000;stroke-width:1.5;"/><rect fill="none" height="196.218" style="stroke:#000000;stroke-width:1.5;" width="477" x="20" y="1555.9567"/><text fill="#000000" font-family="sans-serif" font-size="13" font-weight="bold" lengthAdjust="spacing" textLength="28" x="35" y="1570.8537">loop</text><text fill="#000000" font-family="sans-serif" font-size="11" font-weight="bold" lengthAdjust="spacing" textLength="152" x="108" y="1569.7156">[For each connected client]</text><path d="M30,1582.6627 L93,1582.6627 L93,1592.3687 L83,1602.3687 L30,1602.3687 L30,1582.6627 " fill="#EEEEEE" style="stroke:#000000;stroke-width:1.5;"/><rect fill="none" height="162.512" style="stroke:#000000;stroke-width:1.5;" width="457" x="30" y="1582.6627"/><text fill="#000000" font-family="sans-serif" font-size="13" font-weight="bold" lengthAdjust="spacing" textLength="18" x="45" y="1597.5597">alt</text><text fill="#000000" font-family="sans-serif" font-size="11" font-weight="bold" lengthAdjust="spacing" textLength="179" x="108" y="1596.4216">[if block tx is relevant for client:]</text><line style="stroke:#181818;stroke-width:1.0;" x1="360" x2="402" y1="1643.7808" y2="1643.7808"/><line style="stroke:#181818;stroke-width:1.0;" x1="402" x2="402" y1="1643.7808" y2="1656.7808"/><line style="stroke:#181818;stroke-width:1.0;" x1="361" x2="402" y1="1656.7808" y2="1656.7808"/><polygon fill="#181818" points="371,1652.7808,361,1656.7808,371,1660.7808,367,1656.7808" style="stroke:#181818;stroke-width:1.0;"/><text fill="#000000" font-family="sans-serif" font-size="13" lengthAdjust="spacing" textLength="108" x="367" y="1620.2658">Enrich tx message</text><text fill="#000000" font-family="sans-serif" font-size="13" lengthAdjust="spacing" textLength="70" x="367" y="1637.9718">(tip, pp etc.)</text><polygon fill="#181818" points="75,1684.4868,65,1688.4868,75,1692.4868,71,1688.4868" style="stroke:#181818;stroke-width:1.0;"/><line style="stroke:#181818;stroke-width:1.0;" x1="69" x2="359" y1="1688.4868" y2="1688.4868"/><text fill="#000000" font-family="sans-serif" font-size="13" lengthAdjust="spacing" textLength="236" x="81" y="1682.6778">&lt;event&gt;  { [transaction + block header] }</text><line style="stroke:#000000;stroke-width:1.0;stroke-dasharray:2.0,2.0;" x1="30" x2="487" y1="1697.4868" y2="1697.4868"/><text fill="#000000" font-family="sans-serif" font-size="11" font-weight="bold" lengthAdjust="spacing" textLength="235" x="35" y="1709.2457">[if minimum tip threshold interval passed:]</text><polygon fill="#181818" points="75,1733.1747,65,1737.1747,75,1741.1747,71,1737.1747" style="stroke:#181818;stroke-width:1.0;"/><line style="stroke:#181818;stroke-width:1.0;" x1="69" x2="359" y1="1737.1747" y2="1737.1747"/><text fill="#000000" font-family="sans-serif" font-size="13" lengthAdjust="spacing" textLength="83" x="81" y="1731.3657">&lt;event&gt; { tip }</text><!--SRC=[dPRDRXen483l-nIZ72gYaZm0gd8WQQiSsj0IAOV0mUmEu6BihMqW2F7k7V_iueK5f1u0u_dxncEFpNAhDBmn8T1c9TEMvxnaqi8GzHfrLZ3B9imWFFKRue5MVz3PDcPl7fakc5JmKnLu0ypuGVPtXIk4crTc5l3BZRt8ZvhcqIjN4jwKNg3sYc6OPJEjLcLaXKSb9QcQ328gt3r4MG- -u1gbVO0DYbmj4NQ6L7YEKA1bN9WzMKK_P1NiUs1M4vDhFi5Ehh4W1vm9quLISMbD3mRkzqM_Q3xZydrysuZyrE_1bClYMLhK9kJG2PPEyQcV1j9eIYKDze0dwY4GK3bcAD5mbneJ5lWKQ4KRcbEraWM9B-M-8vCr4xo8Vb5hShttLbNkhSbVo1Sfwe4g-EKcuRq89D5kg9ILEb3fsH9TMlk3xr3atrWAjeN1dBbL-awiZVozHmC-O30ejR8gLo9nwgN7DQhq1hNQaCiy9dqRJLorMijrQjs3zshoxX1wx1t5Z2f4r8nMURbaccCx76aCAuKpM6rKgHdnqD-xEiw1nFscDANAvoSyGMOiM-29x9ZMQrtYFK_SD2LcFn6fj-DeNr7NMAko5DlhN5xjFy6SRPFCUxk6fd53dUySKPGc95r8MamJgvKhzU3F9P75kMEaerrdDPE6-MFJlkbIXMk4P_bEd5IGYG0-mqIeV05pP0NgSHQTncwIQkPAKf-M1YIpV8rq2HYqvrRN2v_bL7N2g0YzwdAXQoDYz6EWayl0NNVZbZYLWwzISpesAUiIZM4pD2EvuNRU83xul6yfKZoEfq5-e9vX5upIjYOsCDc6Xdj_fSsEv6uaHpPTUNEyz5slKMsWy2zj2DjghcvPrKnBdnsFPDs__LVOUD-K46e3hxmaeNi6EDZwsN3WVPnJfM6ubJdfrVAgk1lDBS8dkW4jdsux-64f11PzbytfnLhvRDScTQ6K8zE0Z9BDmni22yW59yCisOvXlUo7kzyq2box1ygKB8DgBxksHJwgdJ6I7SjBUaTGqxNv_Us9vN45wUg-T6xY7Ow2NcK4kkIIBrTBe1XWvxHVvaeKuRgawv_gH3knw5qDklCEzidkTD_kymy0]--></g></svg>