<?xml version="1.0" encoding="us-ascii" standalone="no"?><svg xmlns="http://www.w3.org/2000/svg" xmlns:xlink="http://www.w3.org/1999/xlink" contentStyleType="text/css" height="1693px" preserveAspectRatio="none" style="width:1473px;height:1693px;background:#FFFFFF;" version="1.1" viewBox="0 0 1473 1693" width="1473px" zoomAndPan="magnify"><defs/><g><rect fill="none" height="1184.3535" style="stroke:#000000;stroke-width:1.5;" width="831.5" x="20" y="98.4883"/><rect fill="none" height="75.9316" style="stroke:#000000;stroke-width:1.5;" width="384" x="30" y="210.7305"/><rect fill="none" height="46.6211" style="stroke:#000000;stroke-width:1.5;" width="384" x="30" y="300.6621"/><rect fill="none" height="914.5586" style="stroke:#000000;stroke-width:1.5;" width="811.5" x="30" y="361.2832"/><rect fill="none" height="75.9316" style="stroke:#000000;stroke-width:1.5;" width="484.5" x="337" y="385.5938"/><rect fill="none" height="75.9316" style="stroke:#000000;stroke-width:1.5;" width="484.5" x="337" y="475.5254"/><rect fill="none" height="287.1055" style="stroke:#000000;stroke-width:1.5;" width="504.5" x="327" y="565.457"/><rect fill="none" height="75.9316" style="stroke:#000000;stroke-width:1.5;" width="484.5" x="337" y="589.7676"/><rect fill="none" height="75.9316" style="stroke:#000000;stroke-width:1.5;" width="484.5" x="337" y="679.6992"/><rect fill="none" height="75.9316" style="stroke:#000000;stroke-width:1.5;" width="484.5" x="337" y="769.6309"/><rect fill="none" height="223.4844" style="stroke:#000000;stroke-width:1.5;" width="504.5" x="327" y="866.5625"/><rect fill="none" height="133.5527" style="stroke:#000000;stroke-width:1.5;" width="484.5" x="337" y="949.4941"/><rect fill="none" height="299.0605" style="stroke:#000000;stroke-width:1.5;" width="1210" x="10" y="1296.8418"/><rect fill="none" height="179.8184" style="stroke:#000000;stroke-width:1.5;" width="499.5" x="20" y="1409.084"/><rect fill="none" height="148.5078" style="stroke:#000000;stroke-width:1.5;" width="479.5" x="30" y="1433.3945"/><line style="stroke:#181818;stroke-width:0.5;stroke-dasharray:5.0,5.0;" x1="63" x2="63" y1="81.4883" y2="1612.9023"/><line style="stroke:#181818;stroke-width:0.5;stroke-dasharray:5.0,5.0;" x1="375" x2="375" y1="81.4883" y2="1612.9023"/><line style="stroke:#181818;stroke-width:0.5;stroke-dasharray:5.0,5.0;" x1="793.5" x2="793.5" y1="81.4883" y2="1612.9023"/><line style="stroke:#181818;stroke-width:0.5;stroke-dasharray:5.0,5.0;" x1="1002.5" x2="1002.5" y1="81.4883" y2="1612.9023"/><line style="stroke:#181818;stroke-width:0.5;stroke-dasharray:5.0,5.0;" x1="1153" x2="1153" y1="81.4883" y2="1612.9023"/><line style="stroke:#181818;stroke-width:0.5;stroke-dasharray:5.0,5.0;" x1="1270" x2="1270" y1="81.4883" y2="1612.9023"/><line style="stroke:#181818;stroke-width:0.5;stroke-dasharray:5.0,5.0;" x1="1399" x2="1399" y1="81.4883" y2="1612.9023"/><text fill="#000000" font-family="sans-serif" font-size="14" lengthAdjust="spacing" textLength="41" x="40" y="78.5352">Wallet</text><ellipse cx="63.5" cy="13.5" fill="#E2E2F0" rx="8" ry="8" style="stroke:#181818;stroke-width:0.5;"/><path d="M63.5,21.5 L63.5,48.5 M50.5,29.5 L76.5,29.5 M63.5,48.5 L50.5,63.5 M63.5,48.5 L76.5,63.5 " fill="none" style="stroke:#181818;stroke-width:0.5;"/><text fill="#000000" font-family="sans-serif" font-size="14" lengthAdjust="spacing" textLength="41" x="40" y="1625.4375">Wallet</text><ellipse cx="63.5" cy="1636.8906" fill="#E2E2F0" rx="8" ry="8" style="stroke:#181818;stroke-width:0.5;"/><path d="M63.5,1644.8906 L63.5,1671.8906 M50.5,1652.8906 L76.5,1652.8906 M63.5,1671.8906 L50.5,1686.8906 M63.5,1671.8906 L76.5,1686.8906 " fill="none" style="stroke:#181818;stroke-width:0.5;"/><rect fill="#E2E2F0" height="30.4883" rx="2.5" ry="2.5" style="stroke:#181818;stroke-width:0.5;" width="57" x="347" y="50"/><text fill="#000000" font-family="sans-serif" font-size="14" lengthAdjust="spacing" textLength="43" x="354" y="70.5352">Server</text><rect fill="#E2E2F0" height="30.4883" rx="2.5" ry="2.5" style="stroke:#181818;stroke-width:0.5;" width="57" x="347" y="1611.9023"/><text fill="#000000" font-family="sans-serif" font-size="14" lengthAdjust="spacing" textLength="43" x="354" y="1632.4375">Server</text><text fill="#000000" font-family="sans-serif" font-size="14" lengthAdjust="spacing" textLength="18" x="781.5" y="78.5352">DB</text><path d="M775.5,29 C775.5,19 793.5,19 793.5,19 C793.5,19 811.5,19 811.5,29 L811.5,55 C811.5,65 793.5,65 793.5,65 C793.5,65 775.5,65 775.5,55 L775.5,29 " fill="#E2E2F0" style="stroke:#181818;stroke-width:1.5;"/><path d="M775.5,29 C775.5,39 793.5,39 793.5,39 C793.5,39 811.5,39 811.5,29 " fill="none" style="stroke:#181818;stroke-width:1.5;"/><text fill="#000000" font-family="sans-serif" font-size="14" lengthAdjust="spacing" textLength="18" x="781.5" y="1625.4375">DB</text><path d="M775.5,1638.3906 C775.5,1628.3906 793.5,1628.3906 793.5,1628.3906 C793.5,1628.3906 811.5,1628.3906 811.5,1638.3906 L811.5,1664.3906 C811.5,1674.3906 793.5,1674.3906 793.5,1674.3906 C793.5,1674.3906 775.5,1674.3906 775.5,1664.3906 L775.5,1638.3906 " fill="#E2E2F0" style="stroke:#181818;stroke-width:1.5;"/><path d="M775.5,1638.3906 C775.5,1648.3906 793.5,1648.3906 793.5,1648.3906 C793.5,1648.3906 811.5,1648.3906 811.5,1638.3906 " fill="none" style="stroke:#181818;stroke-width:1.5;"/><rect fill="#E2E2F0" height="30.4883" rx="2.5" ry="2.5" style="stroke:#181818;stroke-width:0.5;" width="76" x="964.5" y="50"/><text fill="#000000" font-family="sans-serif" font-size="14" lengthAdjust="spacing" textLength="62" x="971.5" y="70.5352">Projector</text><rect fill="#E2E2F0" height="30.4883" rx="2.5" ry="2.5" style="stroke:#181818;stroke-width:0.5;" width="76" x="964.5" y="1611.9023"/><text fill="#000000" font-family="sans-serif" font-size="14" lengthAdjust="spacing" textLength="62" x="971.5" y="1632.4375">Projector</text><rect fill="#E2E2F0" height="30.4883" rx="2.5" ry="2.5" style="stroke:#181818;stroke-width:0.5;" width="113" x="1097" y="50"/><text fill="#000000" font-family="sans-serif" font-size="14" lengthAdjust="spacing" textLength="99" x="1104" y="70.5352">Cardano Node</text><rect fill="#E2E2F0" height="30.4883" rx="2.5" ry="2.5" style="stroke:#181818;stroke-width:0.5;" width="113" x="1097" y="1611.9023"/><text fill="#000000" font-family="sans-serif" font-size="14" lengthAdjust="spacing" textLength="99" x="1104" y="1632.4375">Cardano Node</text><path d="M1225,55 L1316,55 C1321,55 1321,68.2441 1321,68.2441 C1321,68.2441 1321,81.4883 1316,81.4883 L1225,81.4883 C1220,81.4883 1220,68.2441 1220,68.2441 C1220,68.2441 1220,55 1225,55 " fill="#E2E2F0" style="stroke:#181818;stroke-width:0.5;"/><path d="M1316,55 C1311,55 1311,68.2441 1311,68.2441 C1311,81.4883 1316,81.4883 1316,81.4883 " fill="none" style="stroke:#181818;stroke-width:0.5;"/><text fill="#000000" font-family="sans-serif" font-size="14" lengthAdjust="spacing" textLength="81" x="1225" y="73.5352">Task Queue</text><path d="M1225,1611.9023 L1316,1611.9023 C1321,1611.9023 1321,1625.1465 1321,1625.1465 C1321,1625.1465 1321,1638.3906 1316,1638.3906 L1225,1638.3906 C1220,1638.3906 1220,1625.1465 1220,1625.1465 C1220,1625.1465 1220,1611.9023 1225,1611.9023 " fill="#E2E2F0" style="stroke:#181818;stroke-width:0.5;"/><path d="M1316,1611.9023 C1311,1611.9023 1311,1625.1465 1311,1625.1465 C1311,1638.3906 1316,1638.3906 1316,1638.3906 " fill="none" style="stroke:#181818;stroke-width:0.5;"/><text fill="#000000" font-family="sans-serif" font-size="14" lengthAdjust="spacing" textLength="81" x="1225" y="1630.4375">Task Queue</text><rect fill="#E2E2F0" height="30.4883" rx="2.5" ry="2.5" style="stroke:#181818;stroke-width:0.5;" width="136" x="1331" y="50"/><text fill="#000000" font-family="sans-serif" font-size="14" lengthAdjust="spacing" textLength="122" x="1338" y="70.5352">Projection Worker</text><rect fill="#E2E2F0" height="30.4883" rx="2.5" ry="2.5" style="stroke:#181818;stroke-width:0.5;" width="136" x="1331" y="1611.9023"/><text fill="#000000" font-family="sans-serif" font-size="14" lengthAdjust="spacing" textLength="122" x="1338" y="1632.4375">Projection Worker</text><path d="M20,98.4883 L172,98.4883 L172,105.7988 L162,115.7988 L20,115.7988 L20,98.4883 " fill="#EEEEEE" style="stroke:#000000;stroke-width:1.5;"/><rect fill="none" height="1184.3535" style="stroke:#000000;stroke-width:1.5;" width="831.5" x="20" y="98.4883"/><text fill="#000000" font-family="sans-serif" font-size="13" font-weight="bold" lengthAdjust="spacing" textLength="107" x="35" y="112.0566">Wallet Connects</text><polygon fill="#181818" points="363.5,133.1094,373.5,137.1094,363.5,141.1094,367.5,137.1094" style="stroke:#181818;stroke-width:1.0;"/><line style="stroke:#181818;stroke-width:1.0;" x1="63.5" x2="369.5" y1="137.1094" y2="137.1094"/><text fill="#000000" font-family="sans-serif" font-size="13" lengthAdjust="spacing" textLength="288" x="70.5" y="132.3672">subscribe(credentials, points: PointOrOrigin[])</text><polygon fill="#181818" points="781.5,162.4199,791.5,166.4199,781.5,170.4199,785.5,166.4199" style="stroke:#181818;stroke-width:1.0;"/><line style="stroke:#181818;stroke-width:1.0;" x1="375.5" x2="787.5" y1="166.4199" y2="166.4199"/><text fill="#000000" font-family="sans-serif" font-size="13" lengthAdjust="spacing" textLength="148" x="382.5" y="161.6777">findIntersection(points)</text><polygon fill="#181818" points="386.5,191.7305,376.5,195.7305,386.5,199.7305,382.5,195.7305" style="stroke:#181818;stroke-width:1.0;"/><line style="stroke:#181818;stroke-width:1.0;" x1="380.5" x2="792.5" y1="195.7305" y2="195.7305"/><text fill="#000000" font-family="sans-serif" font-size="13" lengthAdjust="spacing" textLength="246" x="392.5" y="190.9883">response: intersection point or genesis</text><path d="M30,210.7305 L92,210.7305 L92,218.041 L82,228.041 L30,228.041 L30,210.7305 " fill="#EEEEEE" style="stroke:#000000;stroke-width:1.5;"/><rect fill="none" height="75.9316" style="stroke:#000000;stroke-width:1.5;" width="384" x="30" y="210.7305"/><text fill="#000000" font-family="sans-serif" font-size="13" font-weight="bold" lengthAdjust="spacing" textLength="17" x="45" y="224.2988">alt</text><text fill="#000000" font-family="sans-serif" font-size="11" font-weight="bold" lengthAdjust="spacing" textLength="142" x="107" y="223.3652">[if no intersection found]</text><polygon fill="#181818" points="74.5,245.3516,64.5,249.3516,74.5,253.3516,70.5,249.3516" style="stroke:#181818;stroke-width:1.0;"/><line style="stroke:#181818;stroke-width:1.0;" x1="68.5" x2="374.5" y1="249.3516" y2="249.3516"/><text fill="#000000" font-family="sans-serif" font-size="13" lengthAdjust="spacing" textLength="187" x="80.5" y="244.6094">&lt;event&gt; { invalid point error }</text><polygon fill="#181818" points="363.5,274.6621,373.5,278.6621,363.5,282.6621,367.5,278.6621" style="stroke:#181818;stroke-width:1.0;"/><line style="stroke:#181818;stroke-width:1.0;stroke-dasharray:2.0,2.0;" x1="63.5" x2="369.5" y1="278.6621" y2="278.6621"/><text fill="#000000" font-family="sans-serif" font-size="13" lengthAdjust="spacing" textLength="211" x="70.5" y="273.9199">subscribe(points: PointOrOrigin[])</text><path d="M30,300.6621 L92,300.6621 L92,307.9727 L82,317.9727 L30,317.9727 L30,300.6621 " fill="#EEEEEE" style="stroke:#000000;stroke-width:1.5;"/><rect fill="none" height="46.6211" style="stroke:#000000;stroke-width:1.5;" width="384" x="30" y="300.6621"/><text fill="#000000" font-family="sans-serif" font-size="13" font-weight="bold" lengthAdjust="spacing" textLength="17" x="45" y="314.2305">alt</text><text fill="#000000" font-family="sans-serif" font-size="11" font-weight="bold" lengthAdjust="spacing" textLength="110" x="107" y="313.2969">[if point is genesis]</text><polygon fill="#181818" points="74.5,335.2832,64.5,339.2832,74.5,343.2832,70.5,339.2832" style="stroke:#181818;stroke-width:1.0;"/><line style="stroke:#181818;stroke-width:1.0;" x1="68.5" x2="374.5" y1="339.2832" y2="339.2832"/><text fill="#000000" font-family="sans-serif" font-size="13" lengthAdjust="spacing" textLength="243" x="80.5" y="334.541">&lt;event&gt; {network genesis parameters}</text><path d="M30,361.2832 L328,361.2832 L328,368.5938 L318,378.5938 L30,378.5938 L30,361.2832 " fill="#EEEEEE" style="stroke:#000000;stroke-width:1.5;"/><rect fill="none" height="914.5586" style="stroke:#000000;stroke-width:1.5;" width="811.5" x="30" y="361.2832"/><text fill="#000000" font-family="sans-serif" font-size="13" font-weight="bold" lengthAdjust="spacing" textLength="253" x="45" y="374.8516">Replay Phase: Get intersection events</text><path d="M337,385.5938 L519,385.5938 L519,392.9043 L509,402.9043 L337,402.9043 L337,385.5938 " fill="#EEEEEE" style="stroke:#000000;stroke-width:1.5;"/><rect fill="none" height="75.9316" style="stroke:#000000;stroke-width:1.5;" width="484.5" x="337" y="385.5938"/><text fill="#000000" font-family="sans-serif" font-size="13" font-weight="bold" lengthAdjust="spacing" textLength="137" x="352" y="399.1621">protocol parameters</text><polygon fill="#181818" points="781.5,420.2148,791.5,424.2148,781.5,428.2148,785.5,424.2148" style="stroke:#181818;stroke-width:1.0;"/><line style="stroke:#181818;stroke-width:1.0;" x1="375.5" x2="787.5" y1="424.2148" y2="424.2148"/><text fill="#000000" font-family="sans-serif" font-size="13" lengthAdjust="spacing" textLength="196" x="382.5" y="419.4727">protocolParametersSince(point)</text><polygon fill="#181818" points="386.5,449.5254,376.5,453.5254,386.5,457.5254,382.5,453.5254" style="stroke:#181818;stroke-width:1.0;"/><line style="stroke:#181818;stroke-width:1.0;stroke-dasharray:2.0,2.0;" x1="380.5" x2="792.5" y1="453.5254" y2="453.5254"/><text fill="#000000" font-family="sans-serif" font-size="13" lengthAdjust="spacing" textLength="334" x="392.5" y="448.7832">response: protocolParameters: [protocol-parameters]</text><path d="M337,475.5254 L483,475.5254 L483,482.8359 L473,492.8359 L337,492.8359 L337,475.5254 " fill="#EEEEEE" style="stroke:#000000;stroke-width:1.5;"/><rect fill="none" height="75.9316" style="stroke:#000000;stroke-width:1.5;" width="484.5" x="337" y="475.5254"/><text fill="#000000" font-family="sans-serif" font-size="13" font-weight="bold" lengthAdjust="spacing" textLength="101" x="352" y="489.0938">era summaries</text><polygon fill="#181818" points="781.5,510.1465,791.5,514.1465,781.5,518.1465,785.5,514.1465" style="stroke:#181818;stroke-width:1.0;"/><line style="stroke:#181818;stroke-width:1.0;" x1="375.5" x2="787.5" y1="514.1465" y2="514.1465"/><text fill="#000000" font-family="sans-serif" font-size="13" lengthAdjust="spacing" textLength="162" x="382.5" y="509.4043">eraSummariesSince(point)</text><polygon fill="#181818" points="386.5,539.457,376.5,543.457,386.5,547.457,382.5,543.457" style="stroke:#181818;stroke-width:1.0;"/><line style="stroke:#181818;stroke-width:1.0;" x1="380.5" x2="792.5" y1="543.457" y2="543.457"/><text fill="#000000" font-family="sans-serif" font-size="13" lengthAdjust="spacing" textLength="265" x="392.5" y="538.7148">response: eraSummaries: [era-summaries]</text><path d="M327,565.457 L492,565.457 L492,572.7676 L482,582.7676 L327,582.7676 L327,565.457 " fill="#EEEEEE" style="stroke:#000000;stroke-width:1.5;"/><rect fill="none" height="287.1055" style="stroke:#000000;stroke-width:1.5;" width="504.5" x="327" y="565.457"/><text fill="#000000" font-family="sans-serif" font-size="13" font-weight="bold" lengthAdjust="spacing" textLength="120" x="342" y="579.0254">epoch summaries</text><path d="M337,589.7676 L497,589.7676 L497,597.0781 L487,607.0781 L337,607.0781 L337,589.7676 " fill="#EEEEEE" style="stroke:#000000;stroke-width:1.5;"/><rect fill="none" height="75.9316" style="stroke:#000000;stroke-width:1.5;" width="484.5" x="337" y="589.7676"/><text fill="#000000" font-family="sans-serif" font-size="13" font-weight="bold" lengthAdjust="spacing" textLength="115" x="352" y="603.3359">stake summaries</text><polygon fill="#181818" points="781.5,624.3887,791.5,628.3887,781.5,632.3887,785.5,628.3887" style="stroke:#181818;stroke-width:1.0;"/><line style="stroke:#181818;stroke-width:1.0;" x1="375.5" x2="787.5" y1="628.3887" y2="628.3887"/><text fill="#000000" font-family="sans-serif" font-size="13" lengthAdjust="spacing" textLength="177" x="382.5" y="623.6465">stakeSummariesSince(point)</text><polygon fill="#181818" points="386.5,653.6992,376.5,657.6992,386.5,661.6992,382.5,657.6992" style="stroke:#181818;stroke-width:1.0;"/><line style="stroke:#181818;stroke-width:1.0;" x1="380.5" x2="792.5" y1="657.6992" y2="657.6992"/><text fill="#000000" font-family="sans-serif" font-size="13" lengthAdjust="spacing" textLength="284" x="392.5" y="652.957">response: stakeSummaries: [stake-summary]</text><path d="M337,679.6992 L507,679.6992 L507,687.0098 L497,697.0098 L337,697.0098 L337,679.6992 " fill="#EEEEEE" style="stroke:#000000;stroke-width:1.5;"/><rect fill="none" height="75.9316" style="stroke:#000000;stroke-width:1.5;" width="484.5" x="337" y="679.6992"/><text fill="#000000" font-family="sans-serif" font-size="13" font-weight="bold" lengthAdjust="spacing" textLength="125" x="352" y="693.2676">supply summaries</text><polygon fill="#181818" points="781.5,714.3203,791.5,718.3203,781.5,722.3203,785.5,718.3203" style="stroke:#181818;stroke-width:1.0;"/><line style="stroke:#181818;stroke-width:1.0;" x1="375.5" x2="787.5" y1="718.3203" y2="718.3203"/><text fill="#000000" font-family="sans-serif" font-size="13" lengthAdjust="spacing" textLength="185" x="382.5" y="713.5781">supplySummariesSince(point)</text><polygon fill="#181818" points="386.5,743.6309,376.5,747.6309,386.5,751.6309,382.5,747.6309" style="stroke:#181818;stroke-width:1.0;"/><line style="stroke:#181818;stroke-width:1.0;" x1="380.5" x2="792.5" y1="747.6309" y2="747.6309"/><text fill="#000000" font-family="sans-serif" font-size="13" lengthAdjust="spacing" textLength="300" x="392.5" y="742.8887">response: suppleSummaries: [supply-summary]</text><path d="M337,769.6309 L437,769.6309 L437,776.9414 L427,786.9414 L337,786.9414 L337,769.6309 " fill="#EEEEEE" style="stroke:#000000;stroke-width:1.5;"/><rect fill="none" height="75.9316" style="stroke:#000000;stroke-width:1.5;" width="484.5" x="337" y="769.6309"/><text fill="#000000" font-family="sans-serif" font-size="13" font-weight="bold" lengthAdjust="spacing" textLength="55" x="352" y="783.1992">rewards</text><polygon fill="#181818" points="781.5,804.252,791.5,808.252,781.5,812.252,785.5,808.252" style="stroke:#181818;stroke-width:1.0;"/><line style="stroke:#181818;stroke-width:1.0;" x1="375.5" x2="787.5" y1="808.252" y2="808.252"/><text fill="#000000" font-family="sans-serif" font-size="13" lengthAdjust="spacing" textLength="200" x="382.5" y="803.5098">rewardsSince(point, credentials)</text><polygon fill="#181818" points="386.5,833.5625,376.5,837.5625,386.5,841.5625,382.5,837.5625" style="stroke:#181818;stroke-width:1.0;"/><line style="stroke:#181818;stroke-width:1.0;stroke-dasharray:2.0,2.0;" x1="380.5" x2="792.5" y1="837.5625" y2="837.5625"/><text fill="#000000" font-family="sans-serif" font-size="13" lengthAdjust="spacing" textLength="244" x="392.5" y="832.8203">response: rewardsSincePoint: [rewards]</text><path d="M327,866.5625 L455,866.5625 L455,873.873 L445,883.873 L327,883.873 L327,866.5625 " fill="#EEEEEE" style="stroke:#000000;stroke-width:1.5;"/><rect fill="none" height="223.4844" style="stroke:#000000;stroke-width:1.5;" width="504.5" x="327" y="866.5625"/><text fill="#000000" font-family="sans-serif" font-size="13" font-weight="bold" lengthAdjust="spacing" textLength="83" x="342" y="880.1309">transactions</text><polygon fill="#181818" points="781.5,901.1836,791.5,905.1836,781.5,909.1836,785.5,905.1836" style="stroke:#181818;stroke-width:1.0;"/><line style="stroke:#181818;stroke-width:1.0;" x1="375.5" x2="787.5" y1="905.1836" y2="905.1836"/><text fill="#000000" font-family="sans-serif" font-size="13" lengthAdjust="spacing" textLength="229" x="382.5" y="900.4414">transactionsSince(point, credentials)</text><polygon fill="#181818" points="386.5,930.4941,376.5,934.4941,386.5,938.4941,382.5,934.4941" style="stroke:#181818;stroke-width:1.0;"/><line style="stroke:#181818;stroke-width:1.0;stroke-dasharray:2.0,2.0;" x1="380.5" x2="792.5" y1="934.4941" y2="934.4941"/><text fill="#000000" font-family="sans-serif" font-size="13" lengthAdjust="spacing" textLength="394" x="392.5" y="929.752">response: transactionsSincePoint: [transaction + block header]</text><path d="M337,949.4941 L399,949.4941 L399,956.8047 L389,966.8047 L337,966.8047 L337,949.4941 " fill="#EEEEEE" style="stroke:#000000;stroke-width:1.5;"/><rect fill="none" height="133.5527" style="stroke:#000000;stroke-width:1.5;" width="484.5" x="337" y="949.4941"/><text fill="#000000" font-family="sans-serif" font-size="13" font-weight="bold" lengthAdjust="spacing" textLength="17" x="352" y="963.0625">alt</text><text fill="#000000" font-family="sans-serif" font-size="11" font-weight="bold" lengthAdjust="spacing" textLength="210" x="414" y="962.1289">[if transaction contains native assets]</text><polygon fill="#181818" points="781.5,984.1152,791.5,988.1152,781.5,992.1152,785.5,988.1152" style="stroke:#181818;stroke-width:1.0;"/><line style="stroke:#181818;stroke-width:1.0;" x1="375.5" x2="787.5" y1="988.1152" y2="988.1152"/><text fill="#000000" font-family="sans-serif" font-size="13" lengthAdjust="spacing" textLength="119" x="382.5" y="983.373">assetInfo(assetId[])</text><polygon fill="#181818" points="386.5,1013.4258,376.5,1017.4258,386.5,1021.4258,382.5,1017.4258" style="stroke:#181818;stroke-width:1.0;"/><line style="stroke:#181818;stroke-width:1.0;" x1="380.5" x2="792.5" y1="1017.4258" y2="1017.4258"/><text fill="#000000" font-family="sans-serif" font-size="13" lengthAdjust="spacing" textLength="238" x="392.5" y="1012.6836">response: assetInfo: [asset meta data]</text><line style="stroke:#181818;stroke-width:1.0;" x1="375.5" x2="417.5" y1="1062.0469" y2="1062.0469"/><line style="stroke:#181818;stroke-width:1.0;" x1="417.5" x2="417.5" y1="1062.0469" y2="1075.0469"/><line style="stroke:#181818;stroke-width:1.0;" x1="376.5" x2="417.5" y1="1075.0469" y2="1075.0469"/><polygon fill="#181818" points="386.5,1071.0469,376.5,1075.0469,386.5,1079.0469,382.5,1075.0469" style="stroke:#181818;stroke-width:1.0;"/><text fill="#000000" font-family="sans-serif" font-size="13" lengthAdjust="spacing" textLength="180" x="382.5" y="1041.9941">Enrich transaction messages</text><text fill="#000000" font-family="sans-serif" font-size="13" lengthAdjust="spacing" textLength="176" x="382.5" y="1057.3047">with native asset meta data.</text><line style="stroke:#181818;stroke-width:1.0;" x1="375.5" x2="417.5" y1="1118.3574" y2="1118.3574"/><line style="stroke:#181818;stroke-width:1.0;" x1="417.5" x2="417.5" y1="1118.3574" y2="1131.3574"/><line style="stroke:#181818;stroke-width:1.0;" x1="376.5" x2="417.5" y1="1131.3574" y2="1131.3574"/><polygon fill="#181818" points="386.5,1127.3574,376.5,1131.3574,386.5,1135.3574,382.5,1131.3574" style="stroke:#181818;stroke-width:1.0;"/><text fill="#000000" font-family="sans-serif" font-size="13" lengthAdjust="spacing" textLength="199" x="382.5" y="1113.6152">Merge, sort responses by point.</text><polygon fill="#181818" points="74.5,1263.8418,64.5,1267.8418,74.5,1271.8418,70.5,1267.8418" style="stroke:#181818;stroke-width:1.0;"/><line style="stroke:#181818;stroke-width:1.0;" x1="68.5" x2="374.5" y1="1267.8418" y2="1267.8418"/><text fill="#000000" font-family="sans-serif" font-size="13" lengthAdjust="spacing" textLength="54" x="80.5" y="1155.9258">&lt;event&gt;</text><text fill="#000000" font-family="sans-serif" font-size="13" lengthAdjust="spacing" textLength="4" x="80.5" y="1171.2363">{</text><text fill="#000000" font-family="sans-serif" font-size="13" lengthAdjust="spacing" textLength="189" x="112.5" y="1186.5469">[transactions + block header],</text><text fill="#000000" font-family="sans-serif" font-size="13" lengthAdjust="spacing" textLength="61" x="112.5" y="1201.8574">[rewards],</text><text fill="#000000" font-family="sans-serif" font-size="13" lengthAdjust="spacing" textLength="112" x="112.5" y="1217.168">[epoch summary],</text><text fill="#000000" font-family="sans-serif" font-size="13" lengthAdjust="spacing" textLength="93" x="112.5" y="1232.4785">[era summary],</text><text fill="#000000" font-family="sans-serif" font-size="13" lengthAdjust="spacing" textLength="135" x="112.5" y="1247.7891">[protocol parameters]</text><text fill="#000000" font-family="sans-serif" font-size="13" lengthAdjust="spacing" textLength="4" x="80.5" y="1263.0996">}</text><path d="M10,1296.8418 L123,1296.8418 L123,1304.1523 L113,1314.1523 L10,1314.1523 L10,1296.8418 " fill="#EEEEEE" style="stroke:#000000;stroke-width:1.5;"/><rect fill="none" height="299.0605" style="stroke:#000000;stroke-width:1.5;" width="1210" x="10" y="1296.8418"/><text fill="#000000" font-family="sans-serif" font-size="13" font-weight="bold" lengthAdjust="spacing" textLength="68" x="25" y="1310.4102">Follow Tip</text><polygon fill="#181818" points="1013.5,1331.4629,1003.5,1335.4629,1013.5,1339.4629,1009.5,1335.4629" style="stroke:#181818;stroke-width:1.0;"/><line style="stroke:#181818;stroke-width:1.0;" x1="1007.5" x2="1152.5" y1="1335.4629" y2="1335.4629"/><text fill="#000000" font-family="sans-serif" font-size="13" lengthAdjust="spacing" textLength="127" x="1019.5" y="1330.7207">&lt;event&gt; Chain Sync</text><polygon fill="#181818" points="804.5,1360.7734,794.5,1364.7734,804.5,1368.7734,800.5,1364.7734" style="stroke:#181818;stroke-width:1.0;"/><line style="stroke:#181818;stroke-width:1.0;" x1="798.5" x2="1001.5" y1="1364.7734" y2="1364.7734"/><text fill="#000000" font-family="sans-serif" font-size="13" lengthAdjust="spacing" textLength="185" x="810.5" y="1360.0313">write &amp; notify(extendedBlock)</text><polygon fill="#181818" points="386.5,1390.084,376.5,1394.084,386.5,1398.084,382.5,1394.084" style="stroke:#181818;stroke-width:1.0;"/><line style="stroke:#181818;stroke-width:1.0;" x1="380.5" x2="792.5" y1="1394.084" y2="1394.084"/><text fill="#000000" font-family="sans-serif" font-size="13" lengthAdjust="spacing" textLength="195" x="392.5" y="1389.3418">&lt;event&gt; notify(extendedBlock)</text><path d="M20,1409.084 L94,1409.084 L94,1416.3945 L84,1426.3945 L20,1426.3945 L20,1409.084 " fill="#EEEEEE" style="stroke:#000000;stroke-width:1.5;"/><rect fill="none" height="179.8184" style="stroke:#000000;stroke-width:1.5;" width="499.5" x="20" y="1409.084"/><text fill="#000000" font-family="sans-serif" font-size="13" font-weight="bold" lengthAdjust="spacing" textLength="29" x="35" y="1422.6523">loop</text><text fill="#000000" font-family="sans-serif" font-size="11" font-weight="bold" lengthAdjust="spacing" textLength="150" x="109" y="1421.7188">[For each connected client]</text><path d="M30,1433.3945 L92,1433.3945 L92,1440.7051 L82,1450.7051 L30,1450.7051 L30,1433.3945 " fill="#EEEEEE" style="stroke:#000000;stroke-width:1.5;"/><rect fill="none" height="148.5078" style="stroke:#000000;stroke-width:1.5;" width="479.5" x="30" y="1433.3945"/><text fill="#000000" font-family="sans-serif" font-size="13" font-weight="bold" lengthAdjust="spacing" textLength="17" x="45" y="1446.9629">alt</text><text fill="#000000" font-family="sans-serif" font-size="11" font-weight="bold" lengthAdjust="spacing" textLength="188" x="107" y="1446.0293">[if block tx is relevant for client:]</text><line style="stroke:#181818;stroke-width:1.0;" x1="375.5" x2="417.5" y1="1487.3262" y2="1487.3262"/><line style="stroke:#181818;stroke-width:1.0;" x1="417.5" x2="417.5" y1="1487.3262" y2="1500.3262"/><line style="stroke:#181818;stroke-width:1.0;" x1="376.5" x2="417.5" y1="1500.3262" y2="1500.3262"/><polygon fill="#181818" points="386.5,1496.3262,376.5,1500.3262,386.5,1504.3262,382.5,1500.3262" style="stroke:#181818;stroke-width:1.0;"/><text fill="#000000" font-family="sans-serif" font-size="13" lengthAdjust="spacing" textLength="115" x="382.5" y="1467.2734">Enrich tx message</text><text fill="#000000" font-family="sans-serif" font-size="13" lengthAdjust="spacing" textLength="76" x="382.5" y="1482.584">(tip, pp etc.)</text><polygon fill="#181818" points="74.5,1525.6367,64.5,1529.6367,74.5,1533.6367,70.5,1529.6367" style="stroke:#181818;stroke-width:1.0;"/><line style="stroke:#181818;stroke-width:1.0;" x1="68.5" x2="374.5" y1="1529.6367" y2="1529.6367"/><text fill="#000000" font-family="sans-serif" font-size="13" lengthAdjust="spacing" textLength="256" x="80.5" y="1524.8945">&lt;event&gt;  { [transaction + block header] }</text><line style="stroke:#000000;stroke-width:1.0;stroke-dasharray:2.0,2.0;" x1="30" x2="509.5" y1="1538.6367" y2="1538.6367"/><text fill="#000000" font-family="sans-serif" font-size="11" font-weight="bold" lengthAdjust="spacing" textLength="244" x="35" y="1549.2715">[if minimum tip threshold interval passed:]</text><polygon fill="#181818" points="74.5,1569.9023,64.5,1573.9023,74.5,1577.9023,70.5,1573.9023" style="stroke:#181818;stroke-width:1.0;"/><line style="stroke:#181818;stroke-width:1.0;" x1="68.5" x2="374.5" y1="1573.9023" y2="1573.9023"/><text fill="#000000" font-family="sans-serif" font-size="13" lengthAdjust="spacing" textLength="91" x="80.5" y="1569.1602">&lt;event&gt; { tip }</text><!--SRC=[dLRDRXiv3BxFKn0vT1tKoGCC5WKsINVHGxVPJO4UQX_a6TfM8qkpaiQEOVZTb_eRQ-onNVHYQyIFv2UIeiWggpHyOqAWBHgcBQzumwI55zHhr4NDB9inW_3qq1C_Q_K3dMvlz-QHwPf91N-h6c-06Rye_cknHRZvoimh_EFMNkHNVVLebIi9tvH-HUs1OLaK2wtQ9dA5HoKbGKq1QUVkGoHTWcbdfj9yXgDAOutISYRC61h5fJKbFBl_B_gBvWiklqzloKRGT3QU7agOSrb_aXQr2Mn6GTC1dnvoHnfDewJ14dW63uw00hj0YOQRWXIPiC3dGC7fGUUgbJM9SmhXG2NyZclY_W5sfB9cWjVHC6fDjlTUAnr-yFGN3epazS0gsEMc8to5a4IxeQmaE50MsGhTiVO7so5V_s8Zs1QUbyo5wI_YsZk_jsZ0EmmAZLPMLKfaHhtqE4a9zzp1NhYiug5leufBrs2-JhLB-9usxmwkfzvGF56YY9fHb5ShfZaEaoF4ImASeJN4AbSZFlHvr_avC77_EPj6LSiJFa5cB7l54zanMu-wnFSyuxugSVORaVLs6lKJwuvMspHYUvsNX_qYCQVRP-QjNQEcSKDDx1oZACsOZ27hCNrQWxno2_vU4hEuTqpfgEgiPj8mVss6You7N6Dubj-9aKGo4y1xc0bLlS8IMOrwMaIZiPlao4f9oxWq89dbQwH-Rj2UYwuNVf9pDGghElIgoudkb8YZNmFTN0RkvPeE-4a6FahDwThaN5Te35kWcSWDjyiUuuFD-u4anUjuwkGpwWMEmIXjEyO6PjlGSE-ljDc9t4tanEQHDyUX7tj4Ag3mbJU4RThhMbRQ6UYpqudi-hV_2ONtfn92RU0hRqZeNdH7jfi03dmVbvHfUDdAYd2TF2Ltexb5U4SleENpxGZVBBd0-i6TvlHbJJQ7qGGNIZbc6f3HOQim3c0DbU2aM6Jb6E9btzpxfb7WsiqQSz8CqBAuLY9lgJ8cScHvGuC4DLrRtT-UQ1vda9xkI_Sclk4eQC0YeYik-QfT0Va0kwHwMIfHX-UIdd_A4rLYNLvrklC6zbbrkb-VpzzYA_d3K9AMMadL6lSKngcBv3-RO8VifTYFSsuECgZzx5DJg2dXbgO-ZmvZN0PTe7KZuUZMY_scxqa1wAwuRRKSCk3AAJfAzUGHmoMqStVNNTqITerIejpnUWnfSx_tgXV2ULtTnVP_]--></g></svg>