<?xml version="1.0" encoding="us-ascii" standalone="no"?><svg xmlns="http://www.w3.org/2000/svg" xmlns:xlink="http://www.w3.org/1999/xlink" contentStyleType="text/css" height="1840px" preserveAspectRatio="none" style="width:1472px;height:1840px;background:#FFFFFF;" version="1.1" viewBox="0 0 1472 1840" width="1472px" zoomAndPan="magnify"><defs/><g><rect fill="none" height="1094.4219" style="stroke:#000000;stroke-width:1.5;" width="820.5" x="20" y="98.4883"/><rect fill="none" height="46.6211" style="stroke:#000000;stroke-width:1.5;" width="373" x="30" y="210.7305"/><rect fill="none" height="914.5586" style="stroke:#000000;stroke-width:1.5;" width="800.5" x="30" y="271.3516"/><rect fill="none" height="75.9316" style="stroke:#000000;stroke-width:1.5;" width="484.5" x="326" y="295.6621"/><rect fill="none" height="75.9316" style="stroke:#000000;stroke-width:1.5;" width="484.5" x="326" y="385.5938"/><rect fill="none" height="287.1055" style="stroke:#000000;stroke-width:1.5;" width="504.5" x="316" y="475.5254"/><rect fill="none" height="75.9316" style="stroke:#000000;stroke-width:1.5;" width="484.5" x="326" y="499.8359"/><rect fill="none" height="75.9316" style="stroke:#000000;stroke-width:1.5;" width="484.5" x="326" y="589.7676"/><rect fill="none" height="75.9316" style="stroke:#000000;stroke-width:1.5;" width="484.5" x="326" y="679.6992"/><rect fill="none" height="223.4844" style="stroke:#000000;stroke-width:1.5;" width="504.5" x="316" y="776.6309"/><rect fill="none" height="133.5527" style="stroke:#000000;stroke-width:1.5;" width="484.5" x="326" y="859.5625"/><rect fill="none" height="299.0605" style="stroke:#000000;stroke-width:1.5;" width="1199" x="10" y="1206.9102"/><rect fill="none" height="179.8184" style="stroke:#000000;stroke-width:1.5;" width="488.5" x="20" y="1319.1523"/><rect fill="none" height="148.5078" style="stroke:#000000;stroke-width:1.5;" width="468.5" x="30" y="1343.4629"/><rect fill="none" height="222.4844" style="stroke:#000000;stroke-width:1.5;" width="1436" x="30" y="1519.9707"/><line style="stroke:#181818;stroke-width:0.5;stroke-dasharray:5.0,5.0;" x1="63" x2="63" y1="81.4883" y2="1759.4551"/><line style="stroke:#181818;stroke-width:0.5;stroke-dasharray:5.0,5.0;" x1="364" x2="364" y1="81.4883" y2="1759.4551"/><line style="stroke:#181818;stroke-width:0.5;stroke-dasharray:5.0,5.0;" x1="782.5" x2="782.5" y1="81.4883" y2="1759.4551"/><line style="stroke:#181818;stroke-width:0.5;stroke-dasharray:5.0,5.0;" x1="991.5" x2="991.5" y1="81.4883" y2="1759.4551"/><line style="stroke:#181818;stroke-width:0.5;stroke-dasharray:5.0,5.0;" x1="1142" x2="1142" y1="81.4883" y2="1759.4551"/><line style="stroke:#181818;stroke-width:0.5;stroke-dasharray:5.0,5.0;" x1="1259" x2="1259" y1="81.4883" y2="1759.4551"/><line style="stroke:#181818;stroke-width:0.5;stroke-dasharray:5.0,5.0;" x1="1388" x2="1388" y1="81.4883" y2="1759.4551"/><text fill="#000000" font-family="sans-serif" font-size="14" lengthAdjust="spacing" textLength="41" x="40" y="78.5352">Wallet</text><ellipse cx="63.5" cy="13.5" fill="#E2E2F0" rx="8" ry="8" style="stroke:#181818;stroke-width:0.5;"/><path d="M63.5,21.5 L63.5,48.5 M50.5,29.5 L76.5,29.5 M63.5,48.5 L50.5,63.5 M63.5,48.5 L76.5,63.5 " fill="none" style="stroke:#181818;stroke-width:0.5;"/><text fill="#000000" font-family="sans-serif" font-size="14" lengthAdjust="spacing" textLength="41" x="40" y="1771.9902">Wallet</text><ellipse cx="63.5" cy="1783.4434" fill="#E2E2F0" rx="8" ry="8" style="stroke:#181818;stroke-width:0.5;"/><path d="M63.5,1791.4434 L63.5,1818.4434 M50.5,1799.4434 L76.5,1799.4434 M63.5,1818.4434 L50.5,1833.4434 M63.5,1818.4434 L76.5,1833.4434 " fill="none" style="stroke:#181818;stroke-width:0.5;"/><rect fill="#E2E2F0" height="30.4883" rx="2.5" ry="2.5" style="stroke:#181818;stroke-width:0.5;" width="57" x="336" y="50"/><text fill="#000000" font-family="sans-serif" font-size="14" lengthAdjust="spacing" textLength="43" x="343" y="70.5352">Server</text><rect fill="#E2E2F0" height="30.4883" rx="2.5" ry="2.5" style="stroke:#181818;stroke-width:0.5;" width="57" x="336" y="1758.4551"/><text fill="#000000" font-family="sans-serif" font-size="14" lengthAdjust="spacing" textLength="43" x="343" y="1778.9902">Server</text><text fill="#000000" font-family="sans-serif" font-size="14" lengthAdjust="spacing" textLength="18" x="770.5" y="78.5352">DB</text><path d="M764.5,29 C764.5,19 782.5,19 782.5,19 C782.5,19 800.5,19 800.5,29 L800.5,55 C800.5,65 782.5,65 782.5,65 C782.5,65 764.5,65 764.5,55 L764.5,29 " fill="#E2E2F0" style="stroke:#181818;stroke-width:1.5;"/><path d="M764.5,29 C764.5,39 782.5,39 782.5,39 C782.5,39 800.5,39 800.5,29 " fill="none" style="stroke:#181818;stroke-width:1.5;"/><text fill="#000000" font-family="sans-serif" font-size="14" lengthAdjust="spacing" textLength="18" x="770.5" y="1771.9902">DB</text><path d="M764.5,1784.9434 C764.5,1774.9434 782.5,1774.9434 782.5,1774.9434 C782.5,1774.9434 800.5,1774.9434 800.5,1784.9434 L800.5,1810.9434 C800.5,1820.9434 782.5,1820.9434 782.5,1820.9434 C782.5,1820.9434 764.5,1820.9434 764.5,1810.9434 L764.5,1784.9434 " fill="#E2E2F0" style="stroke:#181818;stroke-width:1.5;"/><path d="M764.5,1784.9434 C764.5,1794.9434 782.5,1794.9434 782.5,1794.9434 C782.5,1794.9434 800.5,1794.9434 800.5,1784.9434 " fill="none" style="stroke:#181818;stroke-width:1.5;"/><rect fill="#E2E2F0" height="30.4883" rx="2.5" ry="2.5" style="stroke:#181818;stroke-width:0.5;" width="76" x="953.5" y="50"/><text fill="#000000" font-family="sans-serif" font-size="14" lengthAdjust="spacing" textLength="62" x="960.5" y="70.5352">Projector</text><rect fill="#E2E2F0" height="30.4883" rx="2.5" ry="2.5" style="stroke:#181818;stroke-width:0.5;" width="76" x="953.5" y="1758.4551"/><text fill="#000000" font-family="sans-serif" font-size="14" lengthAdjust="spacing" textLength="62" x="960.5" y="1778.9902">Projector</text><rect fill="#E2E2F0" height="30.4883" rx="2.5" ry="2.5" style="stroke:#181818;stroke-width:0.5;" width="113" x="1086" y="50"/><text fill="#000000" font-family="sans-serif" font-size="14" lengthAdjust="spacing" textLength="99" x="1093" y="70.5352">Cardano Node</text><rect fill="#E2E2F0" height="30.4883" rx="2.5" ry="2.5" style="stroke:#181818;stroke-width:0.5;" width="113" x="1086" y="1758.4551"/><text fill="#000000" font-family="sans-serif" font-size="14" lengthAdjust="spacing" textLength="99" x="1093" y="1778.9902">Cardano Node</text><path d="M1214,55 L1305,55 C1310,55 1310,68.2441 1310,68.2441 C1310,68.2441 1310,81.4883 1305,81.4883 L1214,81.4883 C1209,81.4883 1209,68.2441 1209,68.2441 C1209,68.2441 1209,55 1214,55 " fill="#E2E2F0" style="stroke:#181818;stroke-width:0.5;"/><path d="M1305,55 C1300,55 1300,68.2441 1300,68.2441 C1300,81.4883 1305,81.4883 1305,81.4883 " fill="none" style="stroke:#181818;stroke-width:0.5;"/><text fill="#000000" font-family="sans-serif" font-size="14" lengthAdjust="spacing" textLength="81" x="1214" y="73.5352">Task Queue</text><path d="M1214,1758.4551 L1305,1758.4551 C1310,1758.4551 1310,1771.6992 1310,1771.6992 C1310,1771.6992 1310,1784.9434 1305,1784.9434 L1214,1784.9434 C1209,1784.9434 1209,1771.6992 1209,1771.6992 C1209,1771.6992 1209,1758.4551 1214,1758.4551 " fill="#E2E2F0" style="stroke:#181818;stroke-width:0.5;"/><path d="M1305,1758.4551 C1300,1758.4551 1300,1771.6992 1300,1771.6992 C1300,1784.9434 1305,1784.9434 1305,1784.9434 " fill="none" style="stroke:#181818;stroke-width:0.5;"/><text fill="#000000" font-family="sans-serif" font-size="14" lengthAdjust="spacing" textLength="81" x="1214" y="1776.9902">Task Queue</text><rect fill="#E2E2F0" height="30.4883" rx="2.5" ry="2.5" style="stroke:#181818;stroke-width:0.5;" width="136" x="1320" y="50"/><text fill="#000000" font-family="sans-serif" font-size="14" lengthAdjust="spacing" textLength="122" x="1327" y="70.5352">Projection Worker</text><rect fill="#E2E2F0" height="30.4883" rx="2.5" ry="2.5" style="stroke:#181818;stroke-width:0.5;" width="136" x="1320" y="1758.4551"/><text fill="#000000" font-family="sans-serif" font-size="14" lengthAdjust="spacing" textLength="122" x="1327" y="1778.9902">Projection Worker</text><path d="M20,98.4883 L172,98.4883 L172,105.7988 L162,115.7988 L20,115.7988 L20,98.4883 " fill="#EEEEEE" style="stroke:#000000;stroke-width:1.5;"/><rect fill="none" height="1094.4219" style="stroke:#000000;stroke-width:1.5;" width="820.5" x="20" y="98.4883"/><text fill="#000000" font-family="sans-serif" font-size="13" font-weight="bold" lengthAdjust="spacing" textLength="107" x="35" y="112.0566">Wallet Connects</text><polygon fill="#181818" points="352.5,133.1094,362.5,137.1094,352.5,141.1094,356.5,137.1094" style="stroke:#181818;stroke-width:1.0;"/><line style="stroke:#181818;stroke-width:1.0;" x1="63.5" x2="358.5" y1="137.1094" y2="137.1094"/><text fill="#000000" font-family="sans-serif" font-size="13" lengthAdjust="spacing" textLength="277" x="70.5" y="132.3672">connect(credentials, points: PointOrOrigin[])</text><polygon fill="#181818" points="770.5,162.4199,780.5,166.4199,770.5,170.4199,774.5,166.4199" style="stroke:#181818;stroke-width:1.0;"/><line style="stroke:#181818;stroke-width:1.0;" x1="364.5" x2="776.5" y1="166.4199" y2="166.4199"/><text fill="#000000" font-family="sans-serif" font-size="13" lengthAdjust="spacing" textLength="148" x="371.5" y="161.6777">findIntersection(points)</text><polygon fill="#181818" points="375.5,191.7305,365.5,195.7305,375.5,199.7305,371.5,195.7305" style="stroke:#181818;stroke-width:1.0;"/><line style="stroke:#181818;stroke-width:1.0;" x1="369.5" x2="781.5" y1="195.7305" y2="195.7305"/><text fill="#000000" font-family="sans-serif" font-size="13" lengthAdjust="spacing" textLength="246" x="381.5" y="190.9883">response: intersection point or genesis</text><path d="M30,210.7305 L92,210.7305 L92,218.041 L82,228.041 L30,228.041 L30,210.7305 " fill="#EEEEEE" style="stroke:#000000;stroke-width:1.5;"/><rect fill="none" height="46.6211" style="stroke:#000000;stroke-width:1.5;" width="373" x="30" y="210.7305"/><text fill="#000000" font-family="sans-serif" font-size="13" font-weight="bold" lengthAdjust="spacing" textLength="17" x="45" y="224.2988">alt</text><text fill="#000000" font-family="sans-serif" font-size="11" font-weight="bold" lengthAdjust="spacing" textLength="110" x="107" y="223.3652">[if point is genesis]</text><polygon fill="#181818" points="74.5,245.3516,64.5,249.3516,74.5,253.3516,70.5,249.3516" style="stroke:#181818;stroke-width:1.0;"/><line style="stroke:#181818;stroke-width:1.0;" x1="68.5" x2="363.5" y1="249.3516" y2="249.3516"/><text fill="#000000" font-family="sans-serif" font-size="13" lengthAdjust="spacing" textLength="243" x="80.5" y="244.6094">&lt;event&gt; {network genesis parameters}</text><path d="M30,271.3516 L346,271.3516 L346,278.6621 L336,288.6621 L30,288.6621 L30,271.3516 " fill="#EEEEEE" style="stroke:#000000;stroke-width:1.5;"/><rect fill="none" height="914.5586" style="stroke:#000000;stroke-width:1.5;" width="800.5" x="30" y="271.3516"/><text fill="#000000" font-family="sans-serif" font-size="13" font-weight="bold" lengthAdjust="spacing" textLength="271" x="45" y="284.9199">Catch-up Phase: Get intersection events</text><path d="M326,295.6621 L508,295.6621 L508,302.9727 L498,312.9727 L326,312.9727 L326,295.6621 " fill="#EEEEEE" style="stroke:#000000;stroke-width:1.5;"/><rect fill="none" height="75.9316" style="stroke:#000000;stroke-width:1.5;" width="484.5" x="326" y="295.6621"/><text fill="#000000" font-family="sans-serif" font-size="13" font-weight="bold" lengthAdjust="spacing" textLength="137" x="341" y="309.2305">protocol parameters</text><polygon fill="#181818" points="770.5,330.2832,780.5,334.2832,770.5,338.2832,774.5,334.2832" style="stroke:#181818;stroke-width:1.0;"/><line style="stroke:#181818;stroke-width:1.0;" x1="364.5" x2="776.5" y1="334.2832" y2="334.2832"/><text fill="#000000" font-family="sans-serif" font-size="13" lengthAdjust="spacing" textLength="196" x="371.5" y="329.541">protocolParametersSince(point)</text><polygon fill="#181818" points="375.5,359.5938,365.5,363.5938,375.5,367.5938,371.5,363.5938" style="stroke:#181818;stroke-width:1.0;"/><line style="stroke:#181818;stroke-width:1.0;stroke-dasharray:2.0,2.0;" x1="369.5" x2="781.5" y1="363.5938" y2="363.5938"/><text fill="#000000" font-family="sans-serif" font-size="13" lengthAdjust="spacing" textLength="334" x="381.5" y="358.8516">response: protocolParameters: [protocol-parameters]</text><path d="M326,385.5938 L472,385.5938 L472,392.9043 L462,402.9043 L326,402.9043 L326,385.5938 " fill="#EEEEEE" style="stroke:#000000;stroke-width:1.5;"/><rect fill="none" height="75.9316" style="stroke:#000000;stroke-width:1.5;" width="484.5" x="326" y="385.5938"/><text fill="#000000" font-family="sans-serif" font-size="13" font-weight="bold" lengthAdjust="spacing" textLength="101" x="341" y="399.1621">era summaries</text><polygon fill="#181818" points="770.5,420.2148,780.5,424.2148,770.5,428.2148,774.5,424.2148" style="stroke:#181818;stroke-width:1.0;"/><line style="stroke:#181818;stroke-width:1.0;" x1="364.5" x2="776.5" y1="424.2148" y2="424.2148"/><text fill="#000000" font-family="sans-serif" font-size="13" lengthAdjust="spacing" textLength="162" x="371.5" y="419.4727">eraSummariesSince(point)</text><polygon fill="#181818" points="375.5,449.5254,365.5,453.5254,375.5,457.5254,371.5,453.5254" style="stroke:#181818;stroke-width:1.0;"/><line style="stroke:#181818;stroke-width:1.0;" x1="369.5" x2="781.5" y1="453.5254" y2="453.5254"/><text fill="#000000" font-family="sans-serif" font-size="13" lengthAdjust="spacing" textLength="265" x="381.5" y="448.7832">response: eraSummaries: [era-summaries]</text><path d="M316,475.5254 L481,475.5254 L481,482.8359 L471,492.8359 L316,492.8359 L316,475.5254 " fill="#EEEEEE" style="stroke:#000000;stroke-width:1.5;"/><rect fill="none" height="287.1055" style="stroke:#000000;stroke-width:1.5;" width="504.5" x="316" y="475.5254"/><text fill="#000000" font-family="sans-serif" font-size="13" font-weight="bold" lengthAdjust="spacing" textLength="120" x="331" y="489.0938">epoch summaries</text><path d="M326,499.8359 L486,499.8359 L486,507.1465 L476,517.1465 L326,517.1465 L326,499.8359 " fill="#EEEEEE" style="stroke:#000000;stroke-width:1.5;"/><rect fill="none" height="75.9316" style="stroke:#000000;stroke-width:1.5;" width="484.5" x="326" y="499.8359"/><text fill="#000000" font-family="sans-serif" font-size="13" font-weight="bold" lengthAdjust="spacing" textLength="115" x="341" y="513.4043">stake summaries</text><polygon fill="#181818" points="770.5,534.457,780.5,538.457,770.5,542.457,774.5,538.457" style="stroke:#181818;stroke-width:1.0;"/><line style="stroke:#181818;stroke-width:1.0;" x1="364.5" x2="776.5" y1="538.457" y2="538.457"/><text fill="#000000" font-family="sans-serif" font-size="13" lengthAdjust="spacing" textLength="177" x="371.5" y="533.7148">stakeSummariesSince(point)</text><polygon fill="#181818" points="375.5,563.7676,365.5,567.7676,375.5,571.7676,371.5,567.7676" style="stroke:#181818;stroke-width:1.0;"/><line style="stroke:#181818;stroke-width:1.0;" x1="369.5" x2="781.5" y1="567.7676" y2="567.7676"/><text fill="#000000" font-family="sans-serif" font-size="13" lengthAdjust="spacing" textLength="284" x="381.5" y="563.0254">response: stakeSummaries: [stake-summary]</text><path d="M326,589.7676 L496,589.7676 L496,597.0781 L486,607.0781 L326,607.0781 L326,589.7676 " fill="#EEEEEE" style="stroke:#000000;stroke-width:1.5;"/><rect fill="none" height="75.9316" style="stroke:#000000;stroke-width:1.5;" width="484.5" x="326" y="589.7676"/><text fill="#000000" font-family="sans-serif" font-size="13" font-weight="bold" lengthAdjust="spacing" textLength="125" x="341" y="603.3359">supply summaries</text><polygon fill="#181818" points="770.5,624.3887,780.5,628.3887,770.5,632.3887,774.5,628.3887" style="stroke:#181818;stroke-width:1.0;"/><line style="stroke:#181818;stroke-width:1.0;" x1="364.5" x2="776.5" y1="628.3887" y2="628.3887"/><text fill="#000000" font-family="sans-serif" font-size="13" lengthAdjust="spacing" textLength="185" x="371.5" y="623.6465">supplySummariesSince(point)</text><polygon fill="#181818" points="375.5,653.6992,365.5,657.6992,375.5,661.6992,371.5,657.6992" style="stroke:#181818;stroke-width:1.0;"/><line style="stroke:#181818;stroke-width:1.0;" x1="369.5" x2="781.5" y1="657.6992" y2="657.6992"/><text fill="#000000" font-family="sans-serif" font-size="13" lengthAdjust="spacing" textLength="300" x="381.5" y="652.957">response: suppleSummaries: [supply-summary]</text><path d="M326,679.6992 L426,679.6992 L426,687.0098 L416,697.0098 L326,697.0098 L326,679.6992 " fill="#EEEEEE" style="stroke:#000000;stroke-width:1.5;"/><rect fill="none" height="75.9316" style="stroke:#000000;stroke-width:1.5;" width="484.5" x="326" y="679.6992"/><text fill="#000000" font-family="sans-serif" font-size="13" font-weight="bold" lengthAdjust="spacing" textLength="55" x="341" y="693.2676">rewards</text><polygon fill="#181818" points="770.5,714.3203,780.5,718.3203,770.5,722.3203,774.5,718.3203" style="stroke:#181818;stroke-width:1.0;"/><line style="stroke:#181818;stroke-width:1.0;" x1="364.5" x2="776.5" y1="718.3203" y2="718.3203"/><text fill="#000000" font-family="sans-serif" font-size="13" lengthAdjust="spacing" textLength="200" x="371.5" y="713.5781">rewardsSince(point, credentials)</text><polygon fill="#181818" points="375.5,743.6309,365.5,747.6309,375.5,751.6309,371.5,747.6309" style="stroke:#181818;stroke-width:1.0;"/><line style="stroke:#181818;stroke-width:1.0;stroke-dasharray:2.0,2.0;" x1="369.5" x2="781.5" y1="747.6309" y2="747.6309"/><text fill="#000000" font-family="sans-serif" font-size="13" lengthAdjust="spacing" textLength="244" x="381.5" y="742.8887">response: rewardsSincePoint: [rewards]</text><path d="M316,776.6309 L444,776.6309 L444,783.9414 L434,793.9414 L316,793.9414 L316,776.6309 " fill="#EEEEEE" style="stroke:#000000;stroke-width:1.5;"/><rect fill="none" height="223.4844" style="stroke:#000000;stroke-width:1.5;" width="504.5" x="316" y="776.6309"/><text fill="#000000" font-family="sans-serif" font-size="13" font-weight="bold" lengthAdjust="spacing" textLength="83" x="331" y="790.1992">transactions</text><polygon fill="#181818" points="770.5,811.252,780.5,815.252,770.5,819.252,774.5,815.252" style="stroke:#181818;stroke-width:1.0;"/><line style="stroke:#181818;stroke-width:1.0;" x1="364.5" x2="776.5" y1="815.252" y2="815.252"/><text fill="#000000" font-family="sans-serif" font-size="13" lengthAdjust="spacing" textLength="229" x="371.5" y="810.5098">transactionsSince(point, credentials)</text><polygon fill="#181818" points="375.5,840.5625,365.5,844.5625,375.5,848.5625,371.5,844.5625" style="stroke:#181818;stroke-width:1.0;"/><line style="stroke:#181818;stroke-width:1.0;stroke-dasharray:2.0,2.0;" x1="369.5" x2="781.5" y1="844.5625" y2="844.5625"/><text fill="#000000" font-family="sans-serif" font-size="13" lengthAdjust="spacing" textLength="394" x="381.5" y="839.8203">response: transactionsSincePoint: [transaction + block header]</text><path d="M326,859.5625 L388,859.5625 L388,866.873 L378,876.873 L326,876.873 L326,859.5625 " fill="#EEEEEE" style="stroke:#000000;stroke-width:1.5;"/><rect fill="none" height="133.5527" style="stroke:#000000;stroke-width:1.5;" width="484.5" x="326" y="859.5625"/><text fill="#000000" font-family="sans-serif" font-size="13" font-weight="bold" lengthAdjust="spacing" textLength="17" x="341" y="873.1309">alt</text><text fill="#000000" font-family="sans-serif" font-size="11" font-weight="bold" lengthAdjust="spacing" textLength="210" x="403" y="872.1973">[if transaction contains native assets]</text><polygon fill="#181818" points="770.5,894.1836,780.5,898.1836,770.5,902.1836,774.5,898.1836" style="stroke:#181818;stroke-width:1.0;"/><line style="stroke:#181818;stroke-width:1.0;" x1="364.5" x2="776.5" y1="898.1836" y2="898.1836"/><text fill="#000000" font-family="sans-serif" font-size="13" lengthAdjust="spacing" textLength="119" x="371.5" y="893.4414">assetInfo(assetId[])</text><polygon fill="#181818" points="375.5,923.4941,365.5,927.4941,375.5,931.4941,371.5,927.4941" style="stroke:#181818;stroke-width:1.0;"/><line style="stroke:#181818;stroke-width:1.0;" x1="369.5" x2="781.5" y1="927.4941" y2="927.4941"/><text fill="#000000" font-family="sans-serif" font-size="13" lengthAdjust="spacing" textLength="238" x="381.5" y="922.752">response: assetInfo: [asset meta data]</text><line style="stroke:#181818;stroke-width:1.0;" x1="364.5" x2="406.5" y1="972.1152" y2="972.1152"/><line style="stroke:#181818;stroke-width:1.0;" x1="406.5" x2="406.5" y1="972.1152" y2="985.1152"/><line style="stroke:#181818;stroke-width:1.0;" x1="365.5" x2="406.5" y1="985.1152" y2="985.1152"/><polygon fill="#181818" points="375.5,981.1152,365.5,985.1152,375.5,989.1152,371.5,985.1152" style="stroke:#181818;stroke-width:1.0;"/><text fill="#000000" font-family="sans-serif" font-size="13" lengthAdjust="spacing" textLength="180" x="371.5" y="952.0625">Enrich transaction messages</text><text fill="#000000" font-family="sans-serif" font-size="13" lengthAdjust="spacing" textLength="176" x="371.5" y="967.373">with native asset meta data.</text><line style="stroke:#181818;stroke-width:1.0;" x1="364.5" x2="406.5" y1="1028.4258" y2="1028.4258"/><line style="stroke:#181818;stroke-width:1.0;" x1="406.5" x2="406.5" y1="1028.4258" y2="1041.4258"/><line style="stroke:#181818;stroke-width:1.0;" x1="365.5" x2="406.5" y1="1041.4258" y2="1041.4258"/><polygon fill="#181818" points="375.5,1037.4258,365.5,1041.4258,375.5,1045.4258,371.5,1041.4258" style="stroke:#181818;stroke-width:1.0;"/><text fill="#000000" font-family="sans-serif" font-size="13" lengthAdjust="spacing" textLength="199" x="371.5" y="1023.6836">Merge, sort responses by point.</text><polygon fill="#181818" points="74.5,1173.9102,64.5,1177.9102,74.5,1181.9102,70.5,1177.9102" style="stroke:#181818;stroke-width:1.0;"/><line style="stroke:#181818;stroke-width:1.0;" x1="68.5" x2="363.5" y1="1177.9102" y2="1177.9102"/><text fill="#000000" font-family="sans-serif" font-size="13" lengthAdjust="spacing" textLength="54" x="80.5" y="1065.9941">&lt;event&gt;</text><text fill="#000000" font-family="sans-serif" font-size="13" lengthAdjust="spacing" textLength="4" x="80.5" y="1081.3047">{</text><text fill="#000000" font-family="sans-serif" font-size="13" lengthAdjust="spacing" textLength="189" x="112.5" y="1096.6152">[transactions + block header],</text><text fill="#000000" font-family="sans-serif" font-size="13" lengthAdjust="spacing" textLength="61" x="112.5" y="1111.9258">[rewards],</text><text fill="#000000" font-family="sans-serif" font-size="13" lengthAdjust="spacing" textLength="112" x="112.5" y="1127.2363">[epoch summary],</text><text fill="#000000" font-family="sans-serif" font-size="13" lengthAdjust="spacing" textLength="93" x="112.5" y="1142.5469">[era summary],</text><text fill="#000000" font-family="sans-serif" font-size="13" lengthAdjust="spacing" textLength="135" x="112.5" y="1157.8574">[protocol parameters]</text><text fill="#000000" font-family="sans-serif" font-size="13" lengthAdjust="spacing" textLength="4" x="80.5" y="1173.168">}</text><path d="M10,1206.9102 L209,1206.9102 L209,1214.2207 L199,1224.2207 L10,1224.2207 L10,1206.9102 " fill="#EEEEEE" style="stroke:#000000;stroke-width:1.5;"/><rect fill="none" height="299.0605" style="stroke:#000000;stroke-width:1.5;" width="1199" x="10" y="1206.9102"/><text fill="#000000" font-family="sans-serif" font-size="13" font-weight="bold" lengthAdjust="spacing" textLength="154" x="25" y="1220.4785">Wallet Synchronization</text><polygon fill="#181818" points="1002.5,1241.5313,992.5,1245.5313,1002.5,1249.5313,998.5,1245.5313" style="stroke:#181818;stroke-width:1.0;"/><line style="stroke:#181818;stroke-width:1.0;" x1="996.5" x2="1141.5" y1="1245.5313" y2="1245.5313"/><text fill="#000000" font-family="sans-serif" font-size="13" lengthAdjust="spacing" textLength="127" x="1008.5" y="1240.7891">&lt;event&gt; Chain Sync</text><polygon fill="#181818" points="793.5,1270.8418,783.5,1274.8418,793.5,1278.8418,789.5,1274.8418" style="stroke:#181818;stroke-width:1.0;"/><line style="stroke:#181818;stroke-width:1.0;" x1="787.5" x2="990.5" y1="1274.8418" y2="1274.8418"/><text fill="#000000" font-family="sans-serif" font-size="13" lengthAdjust="spacing" textLength="185" x="799.5" y="1270.0996">write &amp; notify(extendedBlock)</text><polygon fill="#181818" points="375.5,1300.1523,365.5,1304.1523,375.5,1308.1523,371.5,1304.1523" style="stroke:#181818;stroke-width:1.0;"/><line style="stroke:#181818;stroke-width:1.0;" x1="369.5" x2="781.5" y1="1304.1523" y2="1304.1523"/><text fill="#000000" font-family="sans-serif" font-size="13" lengthAdjust="spacing" textLength="195" x="381.5" y="1299.4102">&lt;event&gt; notify(extendedBlock)</text><path d="M20,1319.1523 L94,1319.1523 L94,1326.4629 L84,1336.4629 L20,1336.4629 L20,1319.1523 " fill="#EEEEEE" style="stroke:#000000;stroke-width:1.5;"/><rect fill="none" height="179.8184" style="stroke:#000000;stroke-width:1.5;" width="488.5" x="20" y="1319.1523"/><text fill="#000000" font-family="sans-serif" font-size="13" font-weight="bold" lengthAdjust="spacing" textLength="29" x="35" y="1332.7207">loop</text><text fill="#000000" font-family="sans-serif" font-size="11" font-weight="bold" lengthAdjust="spacing" textLength="150" x="109" y="1331.7871">[For each connected client]</text><path d="M30,1343.4629 L92,1343.4629 L92,1350.7734 L82,1360.7734 L30,1360.7734 L30,1343.4629 " fill="#EEEEEE" style="stroke:#000000;stroke-width:1.5;"/><rect fill="none" height="148.5078" style="stroke:#000000;stroke-width:1.5;" width="468.5" x="30" y="1343.4629"/><text fill="#000000" font-family="sans-serif" font-size="13" font-weight="bold" lengthAdjust="spacing" textLength="17" x="45" y="1357.0313">alt</text><text fill="#000000" font-family="sans-serif" font-size="11" font-weight="bold" lengthAdjust="spacing" textLength="188" x="107" y="1356.0977">[if block tx is relevant for client:]</text><line style="stroke:#181818;stroke-width:1.0;" x1="364.5" x2="406.5" y1="1397.3945" y2="1397.3945"/><line style="stroke:#181818;stroke-width:1.0;" x1="406.5" x2="406.5" y1="1397.3945" y2="1410.3945"/><line style="stroke:#181818;stroke-width:1.0;" x1="365.5" x2="406.5" y1="1410.3945" y2="1410.3945"/><polygon fill="#181818" points="375.5,1406.3945,365.5,1410.3945,375.5,1414.3945,371.5,1410.3945" style="stroke:#181818;stroke-width:1.0;"/><text fill="#000000" font-family="sans-serif" font-size="13" lengthAdjust="spacing" textLength="115" x="371.5" y="1377.3418">Enrich tx message</text><text fill="#000000" font-family="sans-serif" font-size="13" lengthAdjust="spacing" textLength="76" x="371.5" y="1392.6523">(tip, pp etc.)</text><polygon fill="#181818" points="74.5,1435.7051,64.5,1439.7051,74.5,1443.7051,70.5,1439.7051" style="stroke:#181818;stroke-width:1.0;"/><line style="stroke:#181818;stroke-width:1.0;" x1="68.5" x2="363.5" y1="1439.7051" y2="1439.7051"/><text fill="#000000" font-family="sans-serif" font-size="13" lengthAdjust="spacing" textLength="256" x="80.5" y="1434.9629">&lt;event&gt;  { [transaction + block header] }</text><line style="stroke:#000000;stroke-width:1.0;stroke-dasharray:2.0,2.0;" x1="30" x2="498.5" y1="1448.7051" y2="1448.7051"/><text fill="#000000" font-family="sans-serif" font-size="11" font-weight="bold" lengthAdjust="spacing" textLength="244" x="35" y="1459.3398">[if minimum tip threshold interval passed:]</text><polygon fill="#181818" points="74.5,1479.9707,64.5,1483.9707,74.5,1487.9707,70.5,1483.9707" style="stroke:#181818;stroke-width:1.0;"/><line style="stroke:#181818;stroke-width:1.0;" x1="68.5" x2="363.5" y1="1483.9707" y2="1483.9707"/><text fill="#000000" font-family="sans-serif" font-size="13" lengthAdjust="spacing" textLength="91" x="80.5" y="1479.2285">&lt;event&gt; { tip }</text><path d="M30,1519.9707 L244,1519.9707 L244,1527.2813 L234,1537.2813 L30,1537.2813 L30,1519.9707 " fill="#EEEEEE" style="stroke:#000000;stroke-width:1.5;"/><rect fill="none" height="222.4844" style="stroke:#000000;stroke-width:1.5;" width="1436" x="30" y="1519.9707"/><text fill="#000000" font-family="sans-serif" font-size="13" font-weight="bold" lengthAdjust="spacing" textLength="169" x="45" y="1533.5391">Asynchronous projection</text><polygon fill="#181818" points="1002.5,1554.5918,992.5,1558.5918,1002.5,1562.5918,998.5,1558.5918" style="stroke:#181818;stroke-width:1.0;"/><line style="stroke:#181818;stroke-width:1.0;" x1="996.5" x2="1141.5" y1="1558.5918" y2="1558.5918"/><text fill="#000000" font-family="sans-serif" font-size="13" lengthAdjust="spacing" textLength="127" x="1008.5" y="1553.8496">&lt;event&gt; Chain Sync</text><polygon fill="#181818" points="1247.5,1583.9023,1257.5,1587.9023,1247.5,1591.9023,1251.5,1587.9023" style="stroke:#181818;stroke-width:1.0;"/><line style="stroke:#181818;stroke-width:1.0;" x1="991.5" x2="1253.5" y1="1587.9023" y2="1587.9023"/><text fill="#000000" font-family="sans-serif" font-size="13" lengthAdjust="spacing" textLength="126" x="998.5" y="1583.1602">insert or delete task</text><polygon fill="#181818" points="1270.5,1613.2129,1260.5,1617.2129,1270.5,1621.2129,1266.5,1617.2129" style="stroke:#181818;stroke-width:1.0;"/><line style="stroke:#181818;stroke-width:1.0;" x1="1264.5" x2="1387" y1="1617.2129" y2="1617.2129"/><text fill="#000000" font-family="sans-serif" font-size="13" lengthAdjust="spacing" textLength="58" x="1276.5" y="1612.4707">getTask()</text><polygon fill="#181818" points="1376,1642.5234,1386,1646.5234,1376,1650.5234,1380,1646.5234" style="stroke:#181818;stroke-width:1.0;"/><line style="stroke:#181818;stroke-width:1.0;stroke-dasharray:2.0,2.0;" x1="1259.5" x2="1382" y1="1646.5234" y2="1646.5234"/><text fill="#000000" font-family="sans-serif" font-size="13" lengthAdjust="spacing" textLength="69" x="1266.5" y="1641.7813">return task</text><polygon fill="#181818" points="793.5,1671.834,783.5,1675.834,793.5,1679.834,789.5,1675.834" style="stroke:#181818;stroke-width:1.0;"/><line style="stroke:#181818;stroke-width:1.0;" x1="787.5" x2="1387" y1="1675.834" y2="1675.834"/><text fill="#000000" font-family="sans-serif" font-size="13" lengthAdjust="spacing" textLength="90" x="799.5" y="1671.0918">insert &amp; notify</text><polygon fill="#181818" points="375.5,1701.1445,365.5,1705.1445,375.5,1709.1445,371.5,1705.1445" style="stroke:#181818;stroke-width:1.0;"/><line style="stroke:#181818;stroke-width:1.0;" x1="369.5" x2="781.5" y1="1705.1445" y2="1705.1445"/><text fill="#000000" font-family="sans-serif" font-size="13" lengthAdjust="spacing" textLength="254" x="381.5" y="1700.4023">&lt;event&gt; {metadata: {pool:{id, metadata}}</text><polygon fill="#181818" points="74.5,1730.4551,64.5,1734.4551,74.5,1738.4551,70.5,1734.4551" style="stroke:#181818;stroke-width:1.0;"/><line style="stroke:#181818;stroke-width:1.0;" x1="68.5" x2="363.5" y1="1734.4551" y2="1734.4551"/><text fill="#000000" font-family="sans-serif" font-size="13" lengthAdjust="spacing" textLength="254" x="80.5" y="1729.7129">&lt;event&gt; {metadata: {pool:{id, metadata}}</text><!--SRC=[dLRDRXen4BxlKunog8XAyW2hAb93sYg7Dgceb4FXuEmEh9l5tje6GX7ltl7VueKbIBc0r_FDpEVn_9WLHYfuOdMD9ckOChpW3HC6ngXMgBAI6VRCDCBTRKVygEGVjBgTtOiHKoKJ4dx84Y-0QRV8_YvnYN3nY-aN-6dNJkHMNVLWbKi1JrAze790lyookPBB9d25aHI2e3g3k7Dr4qZdK7ZXe51OeZ2SrNe8ZUJ2w1mUxV-3Ub1ypiNlwILPy7hMmjrj3ZCkodjXK6dFPU0rBV3kDdMZK3TIQCo19t3l22YiSnIekSv8aTK6-2o8k6v50AbtVv8SFk6AQD_0Lg1Pq-aZ72XQR87MruvKKPJMje_BY9cYkgB5OyKifMyKaWujPrE3S-bL6YMDB6ITc7NImu14t6CB6tDHe8_BPL2neUcDpR5s3h_ZvjNUzTGP2cUA554nqCl5WYcE_UG8COw04xJwMALgn8S-hre_UoRsFsNJoA8wukDbsh0NF98TidMej_YUPjnL9Svk8x3UJ8D-PDtIMZPDlJdFoy7UISpgTfavQ-UeALnJkpZ5A4WJ9aD8whbBgvTNQi4LFJ4BUuUK3hBEA2OqSsNJdtGfu1p3a_oEZ4IIYG0-mdCjYnUea9Mefbam6lf9YgIcPnWN6WGpV8NKEJMQKz5rmdinamE_AdqZVFkYMoNYwDP0bSl0peXfZvzeu8jGdCecvRf0hTaSzKIikQawZFSshtikAPJZiPFlgEOu12sLQHbhUDxubdjzfj5En7OY9YQDl3uC_T0XOWBvhxGXRE9UsxBYJa-VdKv4sy7TJsUuZJUYg9GK_1-pL0XevwWbtixTFVTHHRVkL0ZNokD5hnKt21z0ICDdcm6-6dA7vQqzsV54YpRxqGIlfMpWAvb7HWSFSnPBA6fEYbcIcZvsvjLEEuKrhko4dv6cX-RPkNHvZLao4GF36nhWr81DSNrvf7bucx1ziuPWvzEffcSD4LrmmHVB1P0FC1NbJYNhqe_E5RDtHbbPvcUTRfs1NPAfzZUvsyywtAfSQZiKmqldlPVhda_svQ5HkTT6IK6cgpRqohAF8lTeIe1pDFO1Dh3XSrkkAtcOBNApLE9OsQPGS15pw6JIR6tbsiBDOTj8MUTRNWuXRkvssPlXEwTi8_aV]--></g></svg>